<!--?xml version="1.0" standalone="no"?-->              <svg id="sw-js-blob-svg" viewBox="0 0 100 100" xmlns="http://www.w3.org/2000/svg">                    <defs>                         <linearGradient id="sw-gradient" x1="0" x2="1" y1="1" y2="0">                            <stop id="stop1" stop-color="rgba(0, 19, 65, 1)" offset="0%"></stop>                            <stop id="stop2" stop-color="rgba(18, 98, 155, 1)" offset="100%"></stop>                        </linearGradient>                    </defs>                <path fill="url(#sw-gradient)" d="M20.8,-24.1C28.3,-18.5,36.6,-13.2,37,-7C37.5,-0.9,30.1,6.1,25.3,14.7C20.4,23.2,18.1,33.3,12.1,37.1C6.2,40.8,-3.4,38.3,-10.7,33.8C-18,29.3,-23,22.7,-28.5,15.4C-34,8.1,-40.1,0,-39.4,-7.5C-38.8,-15,-31.4,-21.8,-23.7,-27.4C-16,-33,-8,-37.4,-0.7,-36.5C6.7,-35.7,13.3,-29.8,20.8,-24.1Z" width="100%" height="100%" transform="translate(50 50)" stroke-width="0" style="transition: all 0.3s ease 0s;"></path>              </svg>