<svg id="visual" viewBox="0 0 900 600" width="900" height="600" xmlns="http://www.w3.org/2000/svg" xmlns:xlink="http://www.w3.org/1999/xlink" version="1.1"><rect width="900" height="600" fill="#181E1E"></rect><g><g transform="translate(768 60)"><path d="M0 -74.3L52.6 -52.6L74.3 0L52.6 52.6L0 74.3L-52.6 52.6L-74.3 0L-52.6 -52.6Z" fill="none" stroke="#b2d1e0" stroke-width="1"></path></g><g transform="translate(13 457)"><path d="M0 -66L46.7 -46.7L66 0L46.7 46.7L0 66L-46.7 46.7L-66 0L-46.7 -46.7Z" fill="none" stroke="#b2d1e0" stroke-width="1"></path></g><g transform="translate(437 565)"><path d="M0 -71L50.2 -50.2L71 0L50.2 50.2L0 71L-50.2 50.2L-71 0L-50.2 -50.2Z" stroke="#b2d1e0" fill="none" stroke-width="1"></path></g><g transform="translate(780 366)"><path d="M0 -61L43.1 -43.1L61 0L43.1 43.1L0 61L-43.1 43.1L-61 0L-43.1 -43.1Z" stroke="#b2d1e0" fill="none" stroke-width="1"></path></g><g transform="translate(334 307)"><path d="M0 -63L44.5 -44.5L63 0L44.5 44.5L0 63L-44.5 44.5L-63 0L-44.5 -44.5Z" stroke="#b2d1e0" fill="none" stroke-width="1"></path></g><g transform="translate(81 187)"><path d="M0 -60L42.4 -42.4L60 0L42.4 42.4L0 60L-42.4 42.4L-60 0L-42.4 -42.4Z" stroke="#b2d1e0" fill="none" stroke-width="1"></path></g><g transform="translate(211 475)"><path d="M0 -72L50.9 -50.9L72 0L50.9 50.9L0 72L-50.9 50.9L-72 0L-50.9 -50.9Z" stroke="#b2d1e0" fill="none" stroke-width="1"></path></g><g transform="translate(834 535)"><path d="M0 -61L43.1 -43.1L61 0L43.1 43.1L0 61L-43.1 43.1L-61 0L-43.1 -43.1Z" stroke="#b2d1e0" fill="none" stroke-width="1"></path></g></g></svg>