<svg xmlns="http://www.w3.org/2000/svg" viewBox="0 0 750 500"><g id="freepik--Table--inject-135"><path d="M705.48,475.29c0,.14-148,.26-330.46.26s-330.5-.12-330.5-.26S192.46,475,375,475,705.48,475.14,705.48,475.29Z" style="fill:#263238"></path></g><g id="freepik--Window--inject-135"><rect x="418.41" y="31.63" width="252.86" height="331.99" style="fill:#263238"></rect><rect x="406.38" y="31.63" width="252.86" height="331.99" style="fill:#455a64"></rect><rect x="421.51" y="45.54" width="225.82" height="315.06" style="fill:#e0e0e0"></rect><rect x="437.67" y="210.76" width="63.87" height="154.19" style="fill:#455a64"></rect><rect x="447.94" y="228.86" width="10.08" height="10.08" style="fill:#fafafa"></rect><rect x="464.56" y="228.86" width="10.08" height="10.08" style="fill:#fafafa"></rect><rect x="481.19" y="228.86" width="10.08" height="10.08" style="fill:#fafafa"></rect><rect x="447.94" y="244.05" width="10.08" height="10.09" style="fill:#fafafa"></rect><rect x="464.56" y="244.05" width="10.08" height="10.09" style="fill:#fafafa"></rect><rect x="481.19" y="244.05" width="10.08" height="10.09" style="fill:#fafafa"></rect><rect x="447.94" y="259.25" width="10.08" height="10.08" style="fill:#fafafa"></rect><rect x="464.56" y="259.25" width="10.08" height="10.08" style="fill:#fafafa"></rect><rect x="481.19" y="259.25" width="10.08" height="10.08" style="fill:#fafafa"></rect><rect x="447.94" y="274.44" width="10.08" height="10.08" style="fill:#fafafa"></rect><rect x="464.56" y="274.44" width="10.08" height="10.08" style="fill:#fafafa"></rect><rect x="481.19" y="274.44" width="10.08" height="10.08" style="fill:#fafafa"></rect><rect x="447.94" y="289.63" width="10.08" height="10.08" style="fill:#fafafa"></rect><rect x="464.56" y="289.63" width="10.08" height="10.08" style="fill:#fafafa"></rect><rect x="481.19" y="289.63" width="10.08" height="10.08" style="fill:#fafafa"></rect><rect x="447.94" y="304.83" width="10.08" height="10.08" style="fill:#fafafa"></rect><rect x="464.56" y="304.83" width="10.08" height="10.08" style="fill:#fafafa"></rect><rect x="481.19" y="304.83" width="10.08" height="10.08" style="fill:#fafafa"></rect><rect x="447.94" y="320.02" width="10.08" height="10.08" style="fill:#fafafa"></rect><rect x="464.56" y="320.02" width="10.08" height="10.08" style="fill:#fafafa"></rect><rect x="481.19" y="320.02" width="10.08" height="10.08" style="fill:#fafafa"></rect><rect x="447.94" y="335.21" width="10.08" height="10.08" style="fill:#fafafa"></rect><rect x="464.56" y="335.21" width="10.08" height="10.08" style="fill:#fafafa"></rect><rect x="481.19" y="335.21" width="10.08" height="10.08" style="fill:#fafafa"></rect><rect x="447.94" y="350.41" width="10.08" height="10.08" style="fill:#fafafa"></rect><rect x="464.56" y="350.41" width="10.08" height="10.08" style="fill:#fafafa"></rect><rect x="481.19" y="350.41" width="10.08" height="10.08" style="fill:#fafafa"></rect><rect x="500.08" y="258.25" width="43.52" height="105.06" style="fill:#455a64"></rect><rect x="507.08" y="271.05" width="6.87" height="6.87" style="fill:#fafafa"></rect><rect x="518.41" y="271.05" width="6.87" height="6.87" style="fill:#fafafa"></rect><rect x="529.73" y="271.05" width="6.87" height="6.87" style="fill:#fafafa"></rect><rect x="507.08" y="281.4" width="6.87" height="6.87" style="fill:#fafafa"></rect><rect x="518.41" y="281.4" width="6.87" height="6.87" style="fill:#fafafa"></rect><rect x="529.73" y="281.4" width="6.87" height="6.87" style="fill:#fafafa"></rect><rect x="507.08" y="291.75" width="6.87" height="6.87" style="fill:#fafafa"></rect><rect x="518.41" y="291.75" width="6.87" height="6.87" style="fill:#fafafa"></rect><rect x="529.73" y="291.75" width="6.87" height="6.87" style="fill:#fafafa"></rect><rect x="507.08" y="302.1" width="6.87" height="6.87" style="fill:#fafafa"></rect><rect x="518.41" y="302.1" width="6.87" height="6.87" style="fill:#fafafa"></rect><rect x="529.73" y="302.1" width="6.87" height="6.87" style="fill:#fafafa"></rect><rect x="507.08" y="312.46" width="6.87" height="6.87" style="fill:#fafafa"></rect><rect x="518.41" y="312.46" width="6.87" height="6.87" style="fill:#fafafa"></rect><rect x="529.73" y="312.46" width="6.87" height="6.87" style="fill:#fafafa"></rect><rect x="507.08" y="322.81" width="6.87" height="6.87" style="fill:#fafafa"></rect><rect x="518.41" y="322.81" width="6.87" height="6.87" style="fill:#fafafa"></rect><rect x="529.73" y="322.81" width="6.87" height="6.87" style="fill:#fafafa"></rect><rect x="507.08" y="333.16" width="6.87" height="6.87" style="fill:#fafafa"></rect><rect x="518.41" y="333.16" width="6.87" height="6.87" style="fill:#fafafa"></rect><rect x="529.73" y="333.16" width="6.87" height="6.87" style="fill:#fafafa"></rect><rect x="507.08" y="343.51" width="6.87" height="6.87" style="fill:#fafafa"></rect><rect x="518.41" y="343.51" width="6.87" height="6.87" style="fill:#fafafa"></rect><rect x="529.73" y="343.51" width="6.87" height="6.87" style="fill:#fafafa"></rect><rect x="507.08" y="353.87" width="6.87" height="6.87" style="fill:#fafafa"></rect><rect x="518.41" y="353.87" width="6.87" height="6.87" style="fill:#fafafa"></rect><rect x="529.73" y="353.87" width="6.87" height="6.87" style="fill:#fafafa"></rect><rect x="556.69" y="299.96" width="27.39" height="66.13" style="fill:#ebebeb"></rect><rect x="561.1" y="308.01" width="4.32" height="4.32" style="fill:#fafafa"></rect><rect x="568.23" y="308.01" width="4.33" height="4.32" style="fill:#fafafa"></rect><rect x="575.36" y="308.01" width="4.32" height="4.32" style="fill:#fafafa"></rect><rect x="561.1" y="314.53" width="4.32" height="4.32" style="fill:#fafafa"></rect><rect x="568.23" y="314.53" width="4.33" height="4.32" style="fill:#fafafa"></rect><rect x="575.36" y="314.53" width="4.32" height="4.32" style="fill:#fafafa"></rect><rect x="561.1" y="321.05" width="4.32" height="4.32" style="fill:#fafafa"></rect><rect x="568.23" y="321.05" width="4.33" height="4.32" style="fill:#fafafa"></rect><rect x="575.36" y="321.05" width="4.32" height="4.32" style="fill:#fafafa"></rect><rect x="561.1" y="327.56" width="4.32" height="4.32" style="fill:#fafafa"></rect><rect x="568.23" y="327.56" width="4.33" height="4.32" style="fill:#fafafa"></rect><rect x="575.36" y="327.56" width="4.32" height="4.32" style="fill:#fafafa"></rect><rect x="561.1" y="334.08" width="4.32" height="4.32" style="fill:#fafafa"></rect><rect x="568.23" y="334.08" width="4.33" height="4.32" style="fill:#fafafa"></rect><rect x="575.36" y="334.08" width="4.32" height="4.32" style="fill:#fafafa"></rect><rect x="561.1" y="340.59" width="4.32" height="4.32" style="fill:#fafafa"></rect><rect x="568.23" y="340.59" width="4.33" height="4.32" style="fill:#fafafa"></rect><rect x="575.36" y="340.59" width="4.32" height="4.32" style="fill:#fafafa"></rect><rect x="561.1" y="347.11" width="4.32" height="4.32" style="fill:#fafafa"></rect><rect x="568.23" y="347.11" width="4.33" height="4.32" style="fill:#fafafa"></rect><rect x="575.36" y="347.11" width="4.32" height="4.32" style="fill:#fafafa"></rect><rect x="561.1" y="353.62" width="4.32" height="4.32" style="fill:#fafafa"></rect><rect x="568.23" y="353.62" width="4.33" height="4.32" style="fill:#fafafa"></rect><rect x="575.36" y="353.62" width="4.32" height="4.32" style="fill:#fafafa"></rect><rect x="561.1" y="360.14" width="4.32" height="4.32" style="fill:#fafafa"></rect><rect x="568.23" y="360.14" width="4.33" height="4.32" style="fill:#fafafa"></rect><rect x="575.36" y="360.14" width="4.32" height="4.32" style="fill:#fafafa"></rect><rect x="611.82" y="312.62" width="20.68" height="49.92" style="fill:#ebebeb"></rect><rect x="615.14" y="318.7" width="3.26" height="3.26" style="fill:#fafafa"></rect><rect x="620.52" y="318.7" width="3.26" height="3.26" style="fill:#fafafa"></rect><rect x="625.91" y="318.7" width="3.26" height="3.26" style="fill:#fafafa"></rect><rect x="615.14" y="323.62" width="3.26" height="3.26" style="fill:#fafafa"></rect><rect x="620.52" y="323.62" width="3.26" height="3.26" style="fill:#fafafa"></rect><rect x="625.91" y="323.62" width="3.26" height="3.26" style="fill:#fafafa"></rect><rect x="615.14" y="328.54" width="3.26" height="3.26" style="fill:#fafafa"></rect><rect x="620.52" y="328.54" width="3.26" height="3.26" style="fill:#fafafa"></rect><rect x="625.91" y="328.54" width="3.26" height="3.26" style="fill:#fafafa"></rect><rect x="615.14" y="333.45" width="3.26" height="3.26" style="fill:#fafafa"></rect><rect x="620.52" y="333.45" width="3.26" height="3.26" style="fill:#fafafa"></rect><rect x="625.91" y="333.45" width="3.26" height="3.26" style="fill:#fafafa"></rect><rect x="615.14" y="338.37" width="3.26" height="3.26" style="fill:#fafafa"></rect><rect x="620.52" y="338.37" width="3.26" height="3.26" style="fill:#fafafa"></rect><rect x="625.91" y="338.37" width="3.26" height="3.26" style="fill:#fafafa"></rect><rect x="615.14" y="343.29" width="3.26" height="3.26" style="fill:#fafafa"></rect><rect x="620.52" y="343.29" width="3.26" height="3.26" style="fill:#fafafa"></rect><rect x="625.91" y="343.29" width="3.26" height="3.26" style="fill:#fafafa"></rect><rect x="615.14" y="348.21" width="3.26" height="3.26" style="fill:#fafafa"></rect><rect x="620.52" y="348.21" width="3.26" height="3.26" style="fill:#fafafa"></rect><rect x="625.91" y="348.21" width="3.26" height="3.26" style="fill:#fafafa"></rect><rect x="615.14" y="353.13" width="3.26" height="3.26" style="fill:#fafafa"></rect><rect x="620.52" y="353.13" width="3.26" height="3.26" style="fill:#fafafa"></rect><rect x="625.91" y="353.13" width="3.26" height="3.26" style="fill:#fafafa"></rect><rect x="615.14" y="358.05" width="3.26" height="3.26" style="fill:#fafafa"></rect><rect x="620.52" y="358.05" width="3.26" height="3.26" style="fill:#fafafa"></rect><rect x="625.91" y="358.05" width="3.26" height="3.26" style="fill:#fafafa"></rect><rect x="583.11" y="286.4" width="31.23" height="75.41" style="fill:#455a64"></rect><rect x="588.13" y="295.58" width="4.93" height="4.93" style="fill:#fafafa"></rect><rect x="596.26" y="295.58" width="4.93" height="4.93" style="fill:#fafafa"></rect><rect x="604.39" y="295.58" width="4.93" height="4.93" style="fill:#fafafa"></rect><rect x="588.13" y="303.01" width="4.93" height="4.93" style="fill:#fafafa"></rect><rect x="596.26" y="303.01" width="4.93" height="4.93" style="fill:#fafafa"></rect><rect x="604.39" y="303.01" width="4.93" height="4.93" style="fill:#fafafa"></rect><rect x="588.13" y="310.44" width="4.93" height="4.93" style="fill:#fafafa"></rect><rect x="596.26" y="310.44" width="4.93" height="4.93" style="fill:#fafafa"></rect><rect x="604.39" y="310.44" width="4.93" height="4.93" style="fill:#fafafa"></rect><rect x="588.13" y="317.87" width="4.93" height="4.93" style="fill:#fafafa"></rect><rect x="596.26" y="317.87" width="4.93" height="4.93" style="fill:#fafafa"></rect><rect x="604.39" y="317.87" width="4.93" height="4.93" style="fill:#fafafa"></rect><rect x="588.13" y="325.3" width="4.93" height="4.93" style="fill:#fafafa"></rect><rect x="596.26" y="325.3" width="4.93" height="4.93" style="fill:#fafafa"></rect><rect x="604.39" y="325.3" width="4.93" height="4.93" style="fill:#fafafa"></rect><rect x="588.13" y="332.73" width="4.93" height="4.93" style="fill:#fafafa"></rect><rect x="596.26" y="332.73" width="4.93" height="4.93" style="fill:#fafafa"></rect><rect x="604.39" y="332.73" width="4.93" height="4.93" style="fill:#fafafa"></rect><rect x="588.13" y="340.16" width="4.93" height="4.93" style="fill:#fafafa"></rect><rect x="596.26" y="340.16" width="4.93" height="4.93" style="fill:#fafafa"></rect><rect x="604.39" y="340.16" width="4.93" height="4.93" style="fill:#fafafa"></rect><rect x="588.13" y="347.59" width="4.93" height="4.93" style="fill:#fafafa"></rect><rect x="596.26" y="347.59" width="4.93" height="4.93" style="fill:#fafafa"></rect><rect x="604.39" y="347.59" width="4.93" height="4.93" style="fill:#fafafa"></rect><rect x="588.13" y="355.03" width="4.93" height="4.93" style="fill:#fafafa"></rect><rect x="596.26" y="355.03" width="4.93" height="4.93" style="fill:#fafafa"></rect><rect x="604.39" y="355.03" width="4.93" height="4.93" style="fill:#fafafa"></rect><rect x="419.14" y="359.64" width="256.67" height="14.93" style="fill:#263238"></rect><rect x="388.5" y="359.64" width="256.67" height="14.93" style="fill:#455a64"></rect><rect x="419.14" y="84.1" width="231.05" height="13.06" style="fill:#455a64"></rect><path d="M628.24,142.19a24.92,24.92,0,1,1-49.83,0,24.16,24.16,0,0,1,.15-2.7,24.91,24.91,0,0,1,49.68,2.7Z" style="fill:#001341;fill-rule:evenodd"></path><g style="opacity:0.2"><path d="M579.14,148.19a29.07,29.07,0,0,0,3.45,7.88,9,9,0,0,1,5.12,2.69,3.7,3.7,0,0,0,1.6,1.35,1.89,1.89,0,0,0,2.11-1.22,3.29,3.29,0,0,0-.26-2.58c-.44-.88-1.14-1.88-.65-2.73a1.76,1.76,0,0,1,1.58-.72c.61,0,1.2.21,1.81.28,1.46.17,3.07-.37,4.34.37a4,4,0,0,1,1.67,2.82,16.7,16.7,0,0,0,.73,3.31,2.74,2.74,0,0,0,2.6,1.8,3.26,3.26,0,0,0,2.24-2.1,7.87,7.87,0,0,1,1.58-2.76,14.93,14.93,0,0,0,1.54-1.18,3.13,3.13,0,0,0,.08-3.44,24.13,24.13,0,0,1-1.21-2.09,2.13,2.13,0,0,1,.24-2.27,2.19,2.19,0,0,1,2.06-.39c1.77.42,3.05,1.9,4.46,3.07s3.4,2.09,5,1.22c1.38-.75,1.84-2.48,2.13-4,.32-1.77.48-3.89-.88-5.06a5.17,5.17,0,0,0-1.68-.87,8.06,8.06,0,0,1-3.42-2,4.1,4.1,0,0,1,0-5.12c.4-.49.93-.88,1.29-1.4a5.74,5.74,0,0,0,.76-2.61c.26-2,.33-4.4-1.32-5.54a5,5,0,0,0-4-.27,6.55,6.55,0,0,0-2.53,1.11,2.79,2.79,0,0,0-1.12,2.42c.14,1,1,2.07.46,3s-2.22.48-3.31,1c-.7.31-1.11,1-1.62,1.59a5.35,5.35,0,0,1-5.43,1.58,10.54,10.54,0,0,1-2-.94l-1.75-1c-.76-.13-1-1-1.17-1.79-.25-1.5-.33-3.41,1-4.15a2.76,2.76,0,0,1,2.84-2.86,3.59,3.59,0,0,0,1.42,0c.46-.15.72-.86.3-1.1a9.88,9.88,0,0,0-4.67,1,5.58,5.58,0,0,0-3,3.6c-.27,1.17-.06,2.42-.46,3.56a7.14,7.14,0,0,1-2.49,2.95l-2.8,2.29a19.7,19.7,0,0,1-7.35,3.8A26.46,26.46,0,0,0,579.14,148.19Z" style="fill-rule:evenodd"></path></g><path d="M626.22,138.9a1.23,1.23,0,0,1,.07.27c0,.17.08.44.12.78a19.45,19.45,0,0,1,.17,2.9,21.37,21.37,0,0,1-8.3,16.66,19.11,19.11,0,0,1-2.42,1.61c-.3.18-.54.29-.7.37a1,1,0,0,1-.25.11s.32-.2.9-.56a24.25,24.25,0,0,0,2.36-1.67,21.81,21.81,0,0,0,8.23-16.52,21.58,21.58,0,0,0-.09-2.89C626.25,139.28,626.2,138.9,626.22,138.9Z" style="fill:#263238"></path><path d="M581.74,141.22a4.75,4.75,0,0,0,.19-.93,2.85,2.85,0,0,0-.81-2.2l-.07-.06.05-.07a8.49,8.49,0,0,0,.84-2.26,8.37,8.37,0,0,0,.16-2.45v-.11h.11a4.13,4.13,0,0,0,2.19-.93c.45-.39.65-.68.68-.66a1.32,1.32,0,0,1-.12.22,3.77,3.77,0,0,1-.47.54,4,4,0,0,1-2.25,1l.1-.12a8.13,8.13,0,0,1-.14,2.52,8.37,8.37,0,0,1-.89,2.32l0-.14a2.91,2.91,0,0,1,.79,2.37,2.43,2.43,0,0,1-.19.7A.61.61,0,0,1,581.74,141.22Z" style="fill:#263238"></path><path d="M625.2,135.73a11,11,0,0,1-.63-1.64,13.73,13.73,0,0,1-.63-1.65,4.24,4.24,0,0,1,.86,1.56A4.32,4.32,0,0,1,625.2,135.73Z" style="fill:#263238"></path><path d="M585.65,129.34a6,6,0,0,1,.41-.74,6.89,6.89,0,0,1,.53-.83c.23-.31.47-.69.79-1l.49-.59c.18-.2.38-.39.57-.6.39-.42.86-.82,1.34-1.25a21.56,21.56,0,0,1,3.46-2.35,21.13,21.13,0,0,1,3.89-1.55,17.25,17.25,0,0,1,1.79-.4c.28,0,.55-.11.81-.13l.77-.08c.48-.06.92,0,1.31-.07a7.51,7.51,0,0,1,1,0,4.45,4.45,0,0,1,.84.08,7.18,7.18,0,0,1-.85,0c-.27,0-.6,0-1,0a10.84,10.84,0,0,0-1.3.1l-.75.09c-.26,0-.53.1-.81.14-.56.09-1.14.26-1.75.42a22.54,22.54,0,0,0-3.84,1.55,21.58,21.58,0,0,0-3.43,2.31,18.06,18.06,0,0,0-1.34,1.22c-.2.2-.4.39-.57.58l-.5.57c-.33.36-.58.72-.81,1a7.83,7.83,0,0,0-.57.8A4.86,4.86,0,0,1,585.65,129.34Z" style="fill:#fff"></path><path d="M600.54,164.19l-.29,0-.8-.15c-.7-.15-1.71-.4-2.93-.78a25.82,25.82,0,0,1-8.8-4.66,19.55,19.55,0,0,1-3.67-4.1,17.06,17.06,0,0,1-2-4,14.81,14.81,0,0,1-.65-3,7.56,7.56,0,0,1,0-.82,1.07,1.07,0,0,1,0-.29s0,.39.15,1.1a16.28,16.28,0,0,0,.72,2.91,18.8,18.8,0,0,0,5.65,8,26.84,26.84,0,0,0,8.69,4.68c1.21.4,2.21.67,2.9.85l.79.2A1.09,1.09,0,0,1,600.54,164.19Z" style="fill:#fff"></path><path d="M541,241H641.38c-1.22-2.36-6.1-8.45-8.7-9a9.11,9.11,0,0,0-7.49,1.84,28.1,28.1,0,0,0-9.59-12.44C612,218.8,607.4,217,603,217.8s-8.49,4.66-8.36,9.16a11.14,11.14,0,0,0-19.55,6.43,13,13,0,0,0-18.27,3.05,12.21,12.21,0,0,0-13.19,2Z" style="fill:#f5f5f5"></path><path d="M632.69,232a9.12,9.12,0,0,0-7.5,1.84,28,28,0,0,0-9.58-12.43C612,218.75,607.4,217,603,217.75s-8.49,4.66-8.35,9.17a11.14,11.14,0,0,0-19.56,6.43,13,13,0,0,0-18.27,3,12.2,12.2,0,0,0-13.18,2.05s7-4.48,13.61,0a16.38,16.38,0,0,1,9.68-4.54,16.17,16.17,0,0,1,9.68,2.56,14,14,0,0,1,7.11-9.69c6.11-3.06,13.87,5.19,13.87,5.19s.07-9.66,8.56-10.19,16.62,7.42,17.59,15.65A11.88,11.88,0,0,1,632.69,232Z" style="fill:#fff"></path><path d="M541,241l.83-.83,1-1c.2-.21.43-.43.67-.67s.51-.46.81-.69a12.12,12.12,0,0,1,2.16-1.33,12.82,12.82,0,0,1,2.9-.94,12.06,12.06,0,0,1,7.41.84l-.09,0a13.29,13.29,0,0,1,7.67-5.21,13.12,13.12,0,0,1,5.38-.14,13.32,13.32,0,0,1,5.33,2.27l-.15.07a11.58,11.58,0,0,1,7.09-9.61,11.5,11.5,0,0,1,12.65,3.11l-.2.08a8.32,8.32,0,0,1,.34-2.47,9.94,9.94,0,0,1,1.09-2.28,11.28,11.28,0,0,1,1.67-1.92,12.62,12.62,0,0,1,2.12-1.49,12.17,12.17,0,0,1,2.43-1,12.71,12.71,0,0,1,2.62-.35,15,15,0,0,1,5.27.87,24,24,0,0,1,9.13,6,28.18,28.18,0,0,1,6.14,9.48l-.19-.05a9.26,9.26,0,0,1,6.44-2,5.44,5.44,0,0,1,1.77.37,5,5,0,0,1,.79.43,8,8,0,0,1,.73.52,21.78,21.78,0,0,1,2.56,2.42c.79.86,1.52,1.74,2.21,2.65a22.2,22.2,0,0,1,1.88,2.81l.1.19h-.21L541,241l100.39-.13-.11.19a21.38,21.38,0,0,0-1.86-2.78c-.68-.9-1.42-1.78-2.2-2.63a21.91,21.91,0,0,0-2.52-2.39,7,7,0,0,0-.71-.5,4.71,4.71,0,0,0-.76-.42,5.25,5.25,0,0,0-1.69-.35,9,9,0,0,0-6.26,2l-.14.1-.06-.16a28.08,28.08,0,0,0-6.09-9.39,23.81,23.81,0,0,0-9-5.94,15,15,0,0,0-5.19-.86,12.92,12.92,0,0,0-2.56.34,11.68,11.68,0,0,0-2.38.94,12,12,0,0,0-2.07,1.45,11.23,11.23,0,0,0-1.64,1.88,9.43,9.43,0,0,0-1.06,2.22,8.11,8.11,0,0,0-.33,2.39v.31l-.2-.23a11.1,11.1,0,0,0-19.38,6.36v.17l-.14-.1a13.13,13.13,0,0,0-5.25-2.24,12.79,12.79,0,0,0-5.31.12,13.14,13.14,0,0,0-7.6,5.13l0,0,0,0a12,12,0,0,0-7.33-.86,13.33,13.33,0,0,0-2.88.92,13,13,0,0,0-2.15,1.3c-.3.23-.57.47-.82.69l-.67.64-1,1Z" style="fill:#263238"></path><path d="M591.64,231.67s-.07-.06-.2-.2l-.23-.25-.34-.31a6.49,6.49,0,0,0-2.55-1.38,7.6,7.6,0,0,0-4.27,0,8,8,0,0,0-4.21,3,10.54,10.54,0,0,0-1.92,6v.57l-.21-.53a3.33,3.33,0,0,0-2.06-1.91,3.18,3.18,0,0,0-2.2.11,3.43,3.43,0,0,0-1.2.84c-.23.25-.33.41-.34.4s0-.05.06-.12a2.27,2.27,0,0,1,.23-.33,3.41,3.41,0,0,1,1.19-.91,3.31,3.31,0,0,1,2.32-.16,3.5,3.5,0,0,1,2.21,2l-.22,0a10.57,10.57,0,0,1,1.95-6.16,8,8,0,0,1,4.35-3.12,7.68,7.68,0,0,1,4.38.07,6.36,6.36,0,0,1,2.57,1.48l.33.33.21.27A1.5,1.5,0,0,1,591.64,231.67Z" style="fill:#263238"></path><path d="M606.28,231.22a11.31,11.31,0,0,0-1.57-.83,6.19,6.19,0,0,0-7.49,2.27,9.91,9.91,0,0,0-.84,1.56,1.16,1.16,0,0,1,.11-.47,5.47,5.47,0,0,1,.58-1.19,6.15,6.15,0,0,1,7.71-2.34,5.6,5.6,0,0,1,1.14.67A1.43,1.43,0,0,1,606.28,231.22Z" style="fill:#263238"></path><path d="M626.28,239s-.15-.44-.53-1.05a4.17,4.17,0,0,0-4.88-1.76,9.63,9.63,0,0,0-1.08.47s.07-.1.24-.22a3.37,3.37,0,0,1,.78-.42,4.1,4.1,0,0,1,5.09,1.84,3.39,3.39,0,0,1,.33.82A1,1,0,0,1,626.28,239Z" style="fill:#263238"></path><path d="M489.12,74h81.14c-1-1.9-4.93-6.82-7-7.26a7.39,7.39,0,0,0-6.06,1.49,22.71,22.71,0,0,0-7.74-10c-2.95-2.14-6.64-3.58-10.23-3s-6.86,3.76-6.75,7.41a9,9,0,0,0-15.8,5.19,10.51,10.51,0,0,0-14.77,2.46,9.87,9.87,0,0,0-10.66,1.66Z" style="fill:#f5f5f5"></path><path d="M563.23,66.67a7.33,7.33,0,0,0-6.05,1.48,22.73,22.73,0,0,0-7.75-10.05c-2.95-2.14-6.63-3.58-10.22-3s-6.86,3.76-6.75,7.41a9,9,0,0,0-15.81,5.19,10.5,10.5,0,0,0-14.76,2.46,9.88,9.88,0,0,0-10.66,1.66s5.65-3.62,11,0a13.24,13.24,0,0,1,7.82-3.67,13.11,13.11,0,0,1,7.83,2.07,11.3,11.3,0,0,1,5.74-7.83c4.94-2.48,11.22,4.19,11.22,4.19s.06-7.81,6.91-8.23,13.44,6,14.22,12.65A9.58,9.58,0,0,1,563.23,66.67Z" style="fill:#fff"></path><path d="M489.12,74c.07-.06.26-.25.67-.67l.84-.83.54-.54c.2-.18.42-.37.66-.56a9.89,9.89,0,0,1,1.75-1.07,10,10,0,0,1,2.34-.76,9.77,9.77,0,0,1,6,.67l-.06,0a10.54,10.54,0,0,1,10.55-4.32,10.78,10.78,0,0,1,4.3,1.83l-.12.06a9.09,9.09,0,0,1,15.95-5.25l-.16.06a7.15,7.15,0,0,1,.27-2,8.18,8.18,0,0,1,.88-1.84,9.5,9.5,0,0,1,1.36-1.55,9,9,0,0,1,3.67-2,10,10,0,0,1,2.12-.28,12.24,12.24,0,0,1,4.26.7,19.46,19.46,0,0,1,7.38,4.84,22.92,22.92,0,0,1,5,7.66l-.16,0a7.52,7.52,0,0,1,5.21-1.63,4.51,4.51,0,0,1,1.43.3,4,4,0,0,1,.64.35c.2.13.39.27.58.42a17.41,17.41,0,0,1,2.07,2c.64.69,1.23,1.41,1.79,2.14a17.72,17.72,0,0,1,1.52,2.28l.08.15h-.17L489.12,74l81.14-.1-.09.15a17.16,17.16,0,0,0-1.5-2.24c-.55-.73-1.15-1.44-1.78-2.13a17.76,17.76,0,0,0-2-1.93c-.19-.14-.37-.29-.57-.41a6.21,6.21,0,0,0-.61-.34,4.46,4.46,0,0,0-1.37-.28,7.29,7.29,0,0,0-5.06,1.59l-.11.09,0-.13a22.66,22.66,0,0,0-4.93-7.6,19.31,19.31,0,0,0-7.29-4.8,12.12,12.12,0,0,0-4.19-.69,10.31,10.31,0,0,0-2.08.28,9.33,9.33,0,0,0-1.92.75A9.86,9.86,0,0,0,535,57.35a9.12,9.12,0,0,0-1.33,1.52,8,8,0,0,0-.86,1.79,6.67,6.67,0,0,0-.27,1.93v.25l-.17-.18a9,9,0,0,0-15.66,5.14v.13l-.11-.08A10.78,10.78,0,0,0,512.36,66a10.48,10.48,0,0,0-10.43,4.24l0,0,0,0a9.74,9.74,0,0,0-5.92-.69,9.53,9.53,0,0,0-4.07,1.79c-.25.19-.46.38-.66.56s-.38.36-.54.52l-.85.81Z" style="fill:#263238"></path><path d="M530.06,66.4s-.06-.05-.16-.16l-.19-.2-.27-.25a5.27,5.27,0,0,0-2.06-1.12,6.22,6.22,0,0,0-3.46,0,6.44,6.44,0,0,0-3.4,2.46A8.5,8.5,0,0,0,519,72v.46l-.17-.42a2.71,2.71,0,0,0-1.66-1.55,2.58,2.58,0,0,0-1.78.1,2.65,2.65,0,0,0-1,.67c-.19.2-.27.33-.28.32a.66.66,0,0,1,0-.1,3.1,3.1,0,0,1,.19-.26,2.67,2.67,0,0,1,1-.73,2.7,2.7,0,0,1,1.87-.14A2.81,2.81,0,0,1,519,71.94l-.17,0a8.54,8.54,0,0,1,1.57-5,6.57,6.57,0,0,1,3.51-2.52,6.32,6.32,0,0,1,3.55.06,5.1,5.1,0,0,1,2.07,1.2l.27.27.17.21A2.07,2.07,0,0,1,530.06,66.4Z" style="fill:#263238"></path><path d="M541.89,66a11.79,11.79,0,0,0-1.27-.67,5.14,5.14,0,0,0-3.35-.16,5.2,5.2,0,0,0-2.71,2,8,8,0,0,0-.67,1.26s0-.14.09-.38a4.44,4.44,0,0,1,.46-1,5,5,0,0,1,6.24-1.89,4.2,4.2,0,0,1,.92.54A1.35,1.35,0,0,1,541.89,66Z" style="fill:#263238"></path><path d="M558.05,72.29a8.35,8.35,0,0,0-.43-.85A3.46,3.46,0,0,0,555.9,70a3.5,3.5,0,0,0-2.22,0c-.55.18-.85.41-.87.38s.06-.08.19-.18a2.92,2.92,0,0,1,.63-.34,3.32,3.32,0,0,1,4.12,1.49A3.05,3.05,0,0,1,558,72C558.06,72.19,558.07,72.29,558.05,72.29Z" style="fill:#263238"></path><path d="M545,160.27H433.51c1.36-2.62,6.77-9.38,9.66-10a10.08,10.08,0,0,1,8.32,2,31.16,31.16,0,0,1,10.64-13.8c4.05-2.95,9.11-4.92,14.05-4.06s9.42,5.17,9.27,10.18a12.37,12.37,0,0,1,21.71,7.13,14.44,14.44,0,0,1,20.28,3.38,13.58,13.58,0,0,1,14.64,2.27Z" style="fill:#f5f5f5"></path><path d="M443.17,150.25a10.1,10.1,0,0,1,8.32,2,31.1,31.1,0,0,1,10.64-13.81c4.05-2.94,9.11-4.91,14-4.06s9.42,5.18,9.27,10.18a12.37,12.37,0,0,1,21.71,7.14,14.43,14.43,0,0,1,20.29,3.38,13.55,13.55,0,0,1,14.64,2.27s-7.77-5-15.11,0c0,0-4.48-4.64-10.75-5a18,18,0,0,0-10.75,2.83s-1.1-7.34-7.89-10.75-15.41,5.76-15.41,5.76-.08-10.73-9.49-11.31-18.46,8.24-19.54,17.38A13.17,13.17,0,0,0,443.17,150.25Z" style="fill:#fff"></path><path d="M545,160.27l-1-.92-1.16-1.12-.74-.71c-.28-.24-.58-.51-.91-.76a13,13,0,0,0-2.39-1.45,14.14,14.14,0,0,0-3.2-1,13.32,13.32,0,0,0-8.13,1l-.06,0,0-.05a14.17,14.17,0,0,0-3.49-3.46,14.57,14.57,0,0,0-4.94-2.24,14.41,14.41,0,0,0-5.9-.13,14.62,14.62,0,0,0-5.83,2.49l-.15.11v-.19a12.27,12.27,0,0,0-21.52-7.06l-.22.25v-.34A9.27,9.27,0,0,0,485,142a10.69,10.69,0,0,0-1.18-2.46,12.87,12.87,0,0,0-1.83-2.08,12.07,12.07,0,0,0-4.93-2.66,13.65,13.65,0,0,0-2.85-.37,16.58,16.58,0,0,0-5.76,1,26.32,26.32,0,0,0-10,6.59,31.1,31.1,0,0,0-6.77,10.43l-.07.18-.14-.12a10.06,10.06,0,0,0-7-2.18,6.16,6.16,0,0,0-1.88.38,6.37,6.37,0,0,0-.84.47,8.54,8.54,0,0,0-.78.56,24.32,24.32,0,0,0-2.81,2.65c-.87.94-1.68,1.92-2.44,2.92a24.41,24.41,0,0,0-2.06,3.09l-.13-.21,111.46.14-111.46.14h-.23l.11-.2a24.71,24.71,0,0,1,2.09-3.13c.76-1,1.58-2,2.46-2.94a24.1,24.1,0,0,1,2.84-2.68c.26-.2.52-.4.8-.58a6.78,6.78,0,0,1,.88-.48,6.13,6.13,0,0,1,2-.41,10.33,10.33,0,0,1,7.15,2.24l-.22.06a31.58,31.58,0,0,1,6.83-10.53,26.71,26.71,0,0,1,10.13-6.65,16.85,16.85,0,0,1,5.85-1,13.5,13.5,0,0,1,2.91.39,12.84,12.84,0,0,1,2.7,1.06,14.37,14.37,0,0,1,2.35,1.65,12.59,12.59,0,0,1,1.86,2.14,10.9,10.9,0,0,1,1.21,2.53,9.8,9.8,0,0,1,.38,2.74l-.23-.09a12.55,12.55,0,0,1,21.92,7.22l-.17-.08A14.74,14.74,0,0,1,513,149.2a14.23,14.23,0,0,1,6,.15,14.7,14.7,0,0,1,8.52,5.78l-.1,0a13.46,13.46,0,0,1,8.22-.94,14.15,14.15,0,0,1,3.22,1.05,14.79,14.79,0,0,1,2.4,1.47c.33.26.63.53.91.78l.74.73,1.15,1.15Z" style="fill:#263238"></path><path d="M488.74,149.88a1.16,1.16,0,0,1,.18-.25l.23-.3.37-.37a7.11,7.11,0,0,1,2.85-1.65,8.75,8.75,0,0,1,4.87-.08,9,9,0,0,1,4.82,3.47,11.75,11.75,0,0,1,2.16,6.84l-.24,0a3.93,3.93,0,0,1,2.46-2.22,3.65,3.65,0,0,1,2.57.19,3.83,3.83,0,0,1,1.33,1,3.44,3.44,0,0,1,.25.37.92.92,0,0,1,.07.13s-.12-.17-.38-.44a3.75,3.75,0,0,0-1.33-.93,3.58,3.58,0,0,0-2.45-.13,3.72,3.72,0,0,0-2.29,2.12l-.23.59v-.63a11.77,11.77,0,0,0-2.14-6.68,8.83,8.83,0,0,0-4.67-3.38,8.66,8.66,0,0,0-4.75,0,7.35,7.35,0,0,0-2.83,1.54l-.38.34-.25.28C488.82,149.81,488.75,149.89,488.74,149.88Z" style="fill:#263238"></path><path d="M472.49,149.38a1.69,1.69,0,0,1,.39-.36,6,6,0,0,1,1.27-.75,6.82,6.82,0,0,1,8.56,2.6,5.31,5.31,0,0,1,.64,1.32,1.54,1.54,0,0,1,.13.52,12.6,12.6,0,0,0-.93-1.73,6.86,6.86,0,0,0-8.33-2.52A14.4,14.4,0,0,0,472.49,149.38Z" style="fill:#263238"></path><path d="M450.28,158a1.22,1.22,0,0,1,.05-.36,4.07,4.07,0,0,1,.37-.9,4.54,4.54,0,0,1,5.65-2,3.76,3.76,0,0,1,.87.46c.19.14.28.23.27.24s-.44-.27-1.2-.52a4.62,4.62,0,0,0-5.42,2C450.44,157.48,450.33,158,450.28,158Z" style="fill:#263238"></path><path d="M466.17,177.08l.3,2.17a3.26,3.26,0,0,0,1.38,1.27l1.16.25-1.14.3a3.31,3.31,0,0,0-1.27,1.38l-.25,1.81-.3-1.79a3.31,3.31,0,0,0-1.38-1.27l-1.26-.25,1.24-.3a3.26,3.26,0,0,0,1.27-1.38Z" style="fill:#001341"></path><path d="M570.39,272.25l.3,2.17a3.45,3.45,0,0,0,1.38,1.27l1.16.25-1.14.29a3.31,3.31,0,0,0-1.27,1.38l-.25,1.82-.3-1.79a3.34,3.34,0,0,0-1.38-1.28l-1.26-.25,1.24-.29a3.31,3.31,0,0,0,1.27-1.38Z" style="fill:#001341"></path><path d="M623.64,192.91l.3,2.17a3.2,3.2,0,0,0,1.38,1.27l1.16.25-1.14.3a3.2,3.2,0,0,0-1.27,1.38l-.26,1.81-.29-1.79a3.31,3.31,0,0,0-1.38-1.27l-1.26-.26,1.24-.29a3.31,3.31,0,0,0,1.27-1.38Z" style="fill:#001341"></path><path d="M557.75,107l.29,2.17a3.31,3.31,0,0,0,1.38,1.27l1.17.25-1.14.3a3.4,3.4,0,0,0-1.28,1.38l-.25,1.82-.29-1.8a3.31,3.31,0,0,0-1.38-1.27l-1.26-.25,1.24-.3a3.32,3.32,0,0,0,1.27-1.38Z" style="fill:#001341"></path><path d="M514.31,114.42l.28,2.11a3.3,3.3,0,0,0,1.35,1.24l1.13.24-1.11.29a3.33,3.33,0,0,0-1.24,1.34l-.24,1.77-.29-1.75a3.24,3.24,0,0,0-1.34-1.23l-1.23-.25,1.21-.28a3.21,3.21,0,0,0,1.23-1.35Z" style="fill:#fff"></path><path d="M611.23,52.79l.28,2.11a3.3,3.3,0,0,0,1.35,1.24l1.13.24-1.11.29A3.21,3.21,0,0,0,611.64,58l-.25,1.77L611.11,58a3.33,3.33,0,0,0-1.34-1.24l-1.23-.24,1.2-.29A3.14,3.14,0,0,0,611,54.92Z" style="fill:#fff"></path><path d="M474.29,189.81l.2,1.47a2.21,2.21,0,0,0,.93.86l.79.17-.77.2a2.27,2.27,0,0,0-.86.93l-.17,1.24-.2-1.22a2.29,2.29,0,0,0-.94-.86l-.85-.17.84-.2a2.23,2.23,0,0,0,.86-.94Z" style="fill:#fff"></path><path d="M559.38,189.57l.5,3.69a5.67,5.67,0,0,0,2.34,2.16l2,.43-1.94.5a5.63,5.63,0,0,0-2.16,2.35l-.43,3.08-.5-3.05a5.61,5.61,0,0,0-2.34-2.16l-2.14-.43,2.1-.49A5.69,5.69,0,0,0,559,193.3Z" style="fill:#fff"></path><path d="M573.27,181.77l.25,1.9a2.94,2.94,0,0,0,1.21,1.11l1,.22-1,.25a2.94,2.94,0,0,0-1.11,1.21l-.22,1.58-.26-1.56a2.8,2.8,0,0,0-1.2-1.11l-1.1-.22,1.08-.26a2.92,2.92,0,0,0,1.11-1.2Z" style="fill:#fff"></path><path d="M474.87,104.74l.25,1.89a2.88,2.88,0,0,0,1.21,1.11l1,.22-1,.26a2.92,2.92,0,0,0-1.11,1.2L475,111l-.26-1.57a2.92,2.92,0,0,0-1.2-1.11l-1.1-.22,1.08-.25a2.94,2.94,0,0,0,1.11-1.21Z" style="fill:#fff"></path><path d="M587,257.19l.2,1.47a2.23,2.23,0,0,0,.94.86l.79.17-.78.2a2.23,2.23,0,0,0-.86.94l-.17,1.23-.2-1.22A2.23,2.23,0,0,0,586,260l-.85-.17.84-.2a2.23,2.23,0,0,0,.86-.94Z" style="fill:#fff"></path><path d="M659.24,31.63l-.18.24-.57.69-2.27,2.7c-2,2.38-5,5.87-8.79,10.36l0,.05h-.06l-114,.13-111.8-.12h-.05l0,0L410.27,35.3l-2.91-2.72-.74-.71c-.17-.16-.24-.24-.24-.24a2.8,2.8,0,0,1,.26.21l.77.68,3,2.68,11.24,10.24-.1,0,111.8-.12,114,.13-.1,0,8.89-10.28,2.31-2.66c.26-.28.46-.5.6-.67S659.24,31.63,659.24,31.63Z" style="fill:#263238"></path><path d="M421.21,237.4c-.15,0-.26-42.43-.26-94.77s.11-94.77.26-94.77.26,42.42.26,94.77S421.35,237.4,421.21,237.4Z" style="fill:#263238"></path><path d="M647.41,358.94c-.15,0-.26-69.68-.26-155.6s.11-155.62.26-155.62.26,69.66.26,155.62S647.55,358.94,647.41,358.94Z" style="fill:#263238"></path><path d="M501.35,359.88c-.15,0-.26-33.46-.26-74.73s.11-74.73.26-74.73.26,33.45.26,74.73S501.49,359.88,501.35,359.88Z" style="fill:#263238"></path><path d="M662.54,359.64c0,.15-60.78.26-135.73.26s-135.75-.11-135.75-.26,60.76-.26,135.75-.26S662.54,359.5,662.54,359.64Z" style="fill:#263238"></path></g><g id="freepik--Character--inject-135"><path d="M283.66,350.58l-20.42-20.72L233.35,391l-8.63-22.13-41.94,21.15s34.43,50.51,37.75,53c14,10.54,35,1.35,37.09-9.07C259,427.22,283.66,350.58,283.66,350.58Z" style="fill:#efbf9d"></path><path d="M263.94,328.36s19.95-22.55,27-24.49,31.52,3.64,31.72,6.77-3.51,7.65-3.51,7.65,7,1.61,7.92,4a7.65,7.65,0,0,1,.2,4.62l-9.78,2.09-10.25,6.56a12.28,12.28,0,0,1-4.4,7.05c-3.68,2.81-16.18,7.48-19.21,7.92l-4.36,11.55-22.22-19.07Z" style="fill:#efbf9d"></path><path d="M257.61,155.7a12.73,12.73,0,0,0-7.72-8.29c-1.49-.55-3.25-.93-4.08-2.28a10.37,10.37,0,0,1-.8-3.3,6.45,6.45,0,0,0-8.12-4.5,7.55,7.55,0,0,1-2.46.76c-3.48,0-3.84-6.68-7.32-6.63a7.27,7.27,0,0,1,1.81,4,3.33,3.33,0,0,1-2.21,3.45c-3.73.92-5.33-6.29-9.14-5.9-2.06.2-3.63,2.71-5.64,2.21a7.15,7.15,0,0,1-2-1.24,5.29,5.29,0,0,0-7.1,1.45c-1.26,1.92-1.52,4.93-3.75,5.5-1.38.35-2.74-.53-3.89-1.36a13.91,13.91,0,0,0-1.46,6.07,8.31,8.31,0,0,0-7.62,8.65,17.79,17.79,0,0,0-6.52,2.15c-1.93,1.26-3.4,3.51-3.05,5.78a6,6,0,0,1,.19,1.56,3.23,3.23,0,0,1-.77,1.49c-1.38,1.7-3.17,3.11-4.11,5.08s-.61,4.84,1.41,5.68c.47.19,1,.3,1.29.74a1.45,1.45,0,0,1,0,1.12,14.39,14.39,0,0,1-2.43,4,6.27,6.27,0,0,0-1.46,4.36c.23,1.56,1.93,2.93,3.36,2.3l-5,5.62c-1,1.11-2.06,2.53-1.62,3.95.59,1.87,3.31,2,5,1.05s2.89-2.68,4.6-3.62a11.17,11.17,0,0,0,2.09-1.16c.48-.41.88-1,1.49-1.13,1.24-.27,2,1.64,1.26,2.7s-2,1.45-3.2,2-2.38,1.46-2.31,2.73c0,.61.38,1.17.4,1.79.07,2.12-3.17,2.47-4.42,4.18-.92,1.27-.57,3-.09,4.52.58,1.82,2.41,4,3.95,2.87.54-.39.78-1.08,1.27-1.53a4.78,4.78,0,0,1,2.13-.86,9.87,9.87,0,0,0,4.87-3c-2.35,1-5.07,2.59-5.11,5.15a11,11,0,0,0,.78,3.1c.6,2,.5,4.18,1.07,6.2s2.18,4,4.28,4a4.73,4.73,0,0,0,4.87,7.82,4.22,4.22,0,0,1,1.68-.43,3.29,3.29,0,0,1,1.61.9,10.24,10.24,0,0,0,10.62,1c-.46-.48-.91-1-1.36-1.45,3.49,1.27,7.15,2.56,10.84,2.11s7.38-3.26,7.51-7c.05-1.62-.44-3.55.78-4.6a4,4,0,0,1,3.2-.46L239,226.91c2.23.31,4.61.61,6.67-.3s3.56-3.51,2.46-5.48a12.07,12.07,0,0,1,6.32-2.28c2.55-.16,5.09.49,7.64.44s5.37-1,6.4-3.38-1.19-5.7-3.59-4.86c2.07-3.24,8.25-.31,10.52-3.42,1.84-2.53-.93-5.77-1.65-8.82.87-.76,2.16-.87,3-1.6,1.86-1.55.83-4.59-.63-6.51s-3.33-4.09-2.72-6.42,3.72-3.86,3.56-6.33a2.73,2.73,0,0,0-2.78-2.44c.47-4.74-8.45-5.61-8.72-10.36a1.76,1.76,0,0,1,.24-1.08,1.81,1.81,0,0,1,.77-.57c1.41-.64,3-.53,4.55-.81s3.16-1.21,3.33-2.75-2.28-2.75-3-1.36a3.4,3.4,0,0,0-5.21-1.24c-.36-1.63-2.22-2.58-3.89-2.48a10.59,10.59,0,0,0-4.64,1.81" style="fill:#263238"></path><path d="M216.55,189.41c4.25-4.9,10.82-7.16,17.24-8.13a16.71,16.71,0,0,1,8.08.31c2.56.93,4.79,3.23,4.85,5.95l-2.5,3.81c-3,6.6-10.77,9.24-16.33,13.86-2.42,2-4.94,4.65-8.07,4.35a6.76,6.76,0,0,1-4.22-2.36C211.24,202.38,212.3,194.32,216.55,189.41Z" style="fill:#001341"></path><path d="M199.94,218.34a14.5,14.5,0,0,1,10.28-15.5c-.66-4.21,2.71-8.21,6.68-9.74s8.39-1.21,12.63-.85c6.66-7.43,19.57-8,26.84-1.17,8.07-4,18,.34,24.26,6.79a23,23,0,0,0,4.88,4.37A37,37,0,0,0,290,204c8.22,3.3,12.74,13,11.68,21.77a15.77,15.77,0,0,0-.25,4.22c.26,1.84,1.34,3.44,2.06,5.16a14.05,14.05,0,0,1-.45,11.66c-1.56,3-4.29,5.64-4.57,9-.14,1.7.37,3.43.06,5.11-.9,4.88-7.77,6.48-9.34,11.18-.32,1-.38,2-.63,3a8.64,8.64,0,0,1-3.44,5c-1.31.91-2.93,1.5-3.8,2.84a13.68,13.68,0,0,0-1.13,3.43c-.92,2.82-11.89,9.45-14.85,9.59l-65.48-36.41a14,14,0,0,1-3.47-15.83,5.1,5.1,0,0,0,.76-2.74,5.87,5.87,0,0,0-1.13-2.17c-2.91-4.63-.15-10.68,3-15.17a6.89,6.89,0,0,0,1.09-2A8.48,8.48,0,0,0,199.94,218.34Z" style="fill:#263238"></path><path d="M286.68,226.45a30.36,30.36,0,0,0-13.54-11.95c-4-1.71-9.69-4.89-18.93-5.43-14.65-.87-29.41,8.28-35.76,19.91l-33,65.73,30.91,52.74,8.12-18.9c3.51-6.87,5.49-10.82,5.48-10.8s18.19,6.9,34.23-12.74c8-9.77,17.71-27.74,25.2-42.69C296.11,248.85,289.79,229.33,286.68,226.45Z" style="fill:#efbf9d"></path><path d="M233.7,282.92a5.31,5.31,0,0,1,3.1-2.07,5.4,5.4,0,0,1,6,2.65,7.24,7.24,0,0,1-.64,7.29h0a6.61,6.61,0,0,1-5.43.29c-.27-.12-.54-.24-.8-.38a5.91,5.91,0,0,1-2.82-3.21A5.25,5.25,0,0,1,233.7,282.92Z" style="fill:#e89a6c"></path><path d="M274.39,275.07a3.21,3.21,0,0,1-4.31,1.25,3.08,3.08,0,0,1-1.41-4.17A3.23,3.23,0,0,1,273,270.9,3.08,3.08,0,0,1,274.39,275.07Z" style="fill:#263238"></path><path d="M279.66,267.78c-.55.16-1.75-2.62-4.74-4.35s-6.05-1.51-6.16-2.06c-.07-.26.66-.71,2-.85a8.9,8.9,0,0,1,5.2,1.21,8.47,8.47,0,0,1,3.51,3.91C280,266.88,279.93,267.72,279.66,267.78Z" style="fill:#263238"></path><path d="M248.45,281.2c.09-.18,2.13.58,5.36,1.95.81.36,1.62.63,2.05.19a4.4,4.4,0,0,0,.81-2.56c.36-2.27.73-4.64,1.13-7.12,1.68-10.1,3.37-18.22,3.77-18.15s-.62,8.31-2.3,18.41c-.44,2.48-.85,4.84-1.24,7.1a5.15,5.15,0,0,1-1.35,3.22,2.24,2.24,0,0,1-1.91.39,6.35,6.35,0,0,1-1.4-.58C250.25,282.45,248.37,281.37,248.45,281.2Z" style="fill:#263238"></path><path d="M229.94,317.75a63.74,63.74,0,0,1-24.49-24.61s-1.5,20.19,21.34,30.77Z" style="fill:#e89a6c"></path><path d="M238.46,278.15c.5.25-1.38,3.5.06,7.42s5.09,5.56,4.85,6c-.07.23-1.13.18-2.62-.62a9.4,9.4,0,0,1-4.16-4.86,8.16,8.16,0,0,1,.16-6.1C237.42,278.59,238.25,278,238.46,278.15Z" style="fill:#263238"></path><path d="M285,255.89c-.93.43-2.93-1.39-5.73-2.72s-5.43-1.92-5.63-2.92c-.08-.47.63-1,2-1.21a9.84,9.84,0,0,1,9.16,4.54C285.41,254.77,285.39,255.66,285,255.89Z" style="fill:#263238"></path><path d="M235.13,252.19c.05.58,3.08.69,5.77,2.85s3.6,5.09,4.16,5c.26,0,.42-.87.05-2.19a8.78,8.78,0,0,0-3-4.4,8.39,8.39,0,0,0-4.92-1.86C235.85,251.55,235.1,251.92,235.13,252.19Z" style="fill:#263238"></path><path d="M238.7,243c.23,1,3,1.55,5.82,3s5,3.25,5.91,2.82c.43-.22.43-1.12-.27-2.33a9.88,9.88,0,0,0-4.1-3.64,9.73,9.73,0,0,0-5.35-1.07C239.33,242,238.62,242.5,238.7,243Z" style="fill:#263238"></path><path d="M210.09,251.58c.94-1.62,1.29-6.5-.16-7.68-3.87-3.13-11.73-7.25-18.08,3.5-8.69,14.71,7.86,20.4,8.14,20S206.87,257.15,210.09,251.58Z" style="fill:#efbf9d"></path><path d="M199.11,259.62c0-.08-.37,0-.92,0a2.93,2.93,0,0,1-1.93-1.09c-1.22-1.49-1.07-4.73.42-7.42a9.83,9.83,0,0,1,2.89-3.24,3.45,3.45,0,0,1,3.09-.83,1.51,1.51,0,0,1,1.09,1.6c0,.52-.31.76-.25.83s.46-.06.7-.73a1.86,1.86,0,0,0,0-1.27,2.25,2.25,0,0,0-1.2-1.21,4.18,4.18,0,0,0-4,.7,10.21,10.21,0,0,0-3.31,3.57c-1.65,3-1.78,6.69,0,8.56a3.2,3.2,0,0,0,2.57,1C198.87,260,199.14,259.68,199.11,259.62Z" style="fill:#e89a6c"></path><path d="M292.62,264.48c-1.9-3.6-2.32-7.24-.1-10.65-2.32-.56-2.85-4.27-3-6.66s-1.08-4.06.21-6.07a2.69,2.69,0,0,0,.55-1.29,2.9,2.9,0,0,0-1.06-1.88,11.42,11.42,0,0,1-2.52-10.66,24.08,24.08,0,0,1-11.09-4.21,9.24,9.24,0,0,1-13.19-8.45,8.3,8.3,0,0,1-6.86.75,24.46,24.46,0,0,1-6.31-3.23,9.79,9.79,0,0,1-11.15,6.35,2.41,2.41,0,0,0-1.85,0c-.55.37-.62,1.12-.73,1.78a7.7,7.7,0,0,1-9.39,5.89,5.74,5.74,0,0,1-5,7.52c-.73,0-1.66,0-1.94.67a1.73,1.73,0,0,0,0,.82c.25,2.1.42,4.33-.5,6.23s-3.35,3.23-5.22,2.25a5.45,5.45,0,0,1,0,4.32c-.72,1.3-2.78,1.85-3.71.69-.39-.49-6.9-6.21-7-6.83-.88-8.1,8-11.32,12.51-18.11a52.93,52.93,0,0,1,18-16.23,38.81,38.81,0,0,1,9.38-4.07,51.77,51.77,0,0,1,11.59-1.26c5.08-.15,10.27-.24,15.13,1.24,9.06,2.75,15.65,10.45,21.09,18.2a39.86,39.86,0,0,1,5.27,9.39,36.09,36.09,0,0,1,1.63,12.75c-.09,6.23-.85,12.56-3.44,18.22" style="fill:#263238"></path><path d="M298.52,261a6.28,6.28,0,0,0,.12-2c0-.68-.13-1.5-.13-2.48a7.88,7.88,0,0,1,.78-3.24,24.64,24.64,0,0,1,2.18-3.62,18.42,18.42,0,0,0,2.42-4.45,14.14,14.14,0,0,0,.76-5.78,13.41,13.41,0,0,0-.61-3.14,20.36,20.36,0,0,0-1.32-3.09,10.58,10.58,0,0,1-1.13-3.24,14.18,14.18,0,0,1,.22-3.59,22.63,22.63,0,0,0-.28-7.8,22.34,22.34,0,0,0-3.18-7.72,20.27,20.27,0,0,0-2.78-3.4,18.37,18.37,0,0,0-3.63-2.69c-.66-.38-1.37-.67-2.08-1s-1.45-.52-2.17-.78a11.1,11.1,0,0,1-3.95-2.28c-1.17-1-2.19-2.26-3.36-3.39a31,31,0,0,0-3.76-3.17,30.35,30.35,0,0,0-4.31-2.55,26.32,26.32,0,0,0-4.8-1.71,16.86,16.86,0,0,0-10.28.6l-1,.41.29.05a19.82,19.82,0,0,0-27.2,1.18l.2-.08a53,53,0,0,0-6.76-.26,17.83,17.83,0,0,0-6.42,1.33,11.67,11.67,0,0,0-4.88,4,8.08,8.08,0,0,0-1.48,5.81l.16-.24a14.16,14.16,0,0,0-7.8,5.62,14.47,14.47,0,0,0-2.71,8.23,13.58,13.58,0,0,0,.13,2c.1.66.23,1.29.26,1.91a3.62,3.62,0,0,1-.32,1.76,9.43,9.43,0,0,1-.93,1.51,28.48,28.48,0,0,0-3.09,5.7,13.42,13.42,0,0,0-1,5.11,8.25,8.25,0,0,0,.91,3.73c.47.94,1,1.53,1.25,2a3.85,3.85,0,0,1,.28.76,2.15,2.15,0,0,0-.22-.79c-.21-.51-.76-1.12-1.2-2.05a8.37,8.37,0,0,1-.83-3.68,13.44,13.44,0,0,1,1.05-5,27.65,27.65,0,0,1,3.11-5.62,12,12,0,0,0,1-1.55,4,4,0,0,0,.35-1.9,18.57,18.57,0,0,0-.25-1.95,15.91,15.91,0,0,1-.12-2,14.23,14.23,0,0,1,2.69-8,13.87,13.87,0,0,1,7.59-5.43l.18,0,0-.19a7.71,7.71,0,0,1,1.43-5.5,11.24,11.24,0,0,1,4.7-3.81,17.61,17.61,0,0,1,6.25-1.29,54.27,54.27,0,0,1,6.7.28h.12l.09-.09a19.31,19.31,0,0,1,26.48-1.14l.12.11.17-.07.93-.39a16.37,16.37,0,0,1,10-.58,26.24,26.24,0,0,1,4.7,1.67,30.74,30.74,0,0,1,4.23,2.5,30.09,30.09,0,0,1,3.71,3.11c1.14,1.11,2.17,2.35,3.38,3.4a11.86,11.86,0,0,0,1.95,1.42,14.18,14.18,0,0,0,2.16.95c.74.27,1.46.5,2.17.78a18.66,18.66,0,0,1,2,1,17.7,17.7,0,0,1,3.54,2.61,20.35,20.35,0,0,1,2.73,3.31,21.77,21.77,0,0,1,3.13,7.56,22,22,0,0,1,.3,7.65,13.94,13.94,0,0,0-.19,3.7,10.92,10.92,0,0,0,1.17,3.35,21,21,0,0,1,1.33,3,14,14,0,0,1-.1,8.73,18.63,18.63,0,0,1-2.36,4.41,24.94,24.94,0,0,0-2.16,3.67,8.12,8.12,0,0,0-.74,3.32c0,1,.14,1.82.18,2.48a8.89,8.89,0,0,1,0,1.53C298.54,260.82,298.51,261,298.52,261Z" style="fill:#455a64"></path><path d="M265.19,191.85c0,.05.52,0,1.44.06a11.51,11.51,0,0,1,3.77.93,10.73,10.73,0,0,1,4.45,3.52,11.1,11.1,0,0,1,2.11,6.56,9.65,9.65,0,0,1-.24,2.1,2.11,2.11,0,0,1-1,1.49l-.65.3.7.17a7.11,7.11,0,0,1,4.25,3.19,6.81,6.81,0,0,1,.93,4.19,7.66,7.66,0,0,1-.83,2.77c-.32.6-.56.9-.53.92s.08-.06.2-.19a4.55,4.55,0,0,0,.48-.65,7,7,0,0,0,1-2.82,7.06,7.06,0,0,0-.87-4.44,7.42,7.42,0,0,0-4.51-3.45l0,.47a2.6,2.6,0,0,0,1.3-1.83,10.21,10.21,0,0,0,.25-2.22,11.39,11.39,0,0,0-2.24-6.84,11,11,0,0,0-8.59-4.37,9,9,0,0,0-1.08.06A1.2,1.2,0,0,0,265.19,191.85Z" style="fill:#455a64"></path><path d="M231.39,195a2.84,2.84,0,0,0,.21.83,11.72,11.72,0,0,0,1,2.12,8.07,8.07,0,0,0,2.44,2.59,6.1,6.1,0,0,0,4.31,1l-.3-.24.09.86c0,.29.11.58.16.87a10.33,10.33,0,0,0,2.37,4.43,10.49,10.49,0,0,0,3.27,2.48,9.36,9.36,0,0,0,2.63.82,3.25,3.25,0,0,0,1,0,14.84,14.84,0,0,1-3.48-1.17,10.69,10.69,0,0,1-3.07-2.47,10.06,10.06,0,0,1-2.22-4.24c-.06-.28-.12-.55-.16-.83l-.09-.81,0-.28-.27,0a5.76,5.76,0,0,1-4-.9,8.14,8.14,0,0,1-2.4-2.39C231.82,196.09,231.48,194.91,231.39,195Z" style="fill:#455a64"></path><path d="M215.65,204.14s-.06.1-.12.29a2.81,2.81,0,0,0-.08.91,4.49,4.49,0,0,0,1.46,3,8.66,8.66,0,0,0,4.49,2,26.47,26.47,0,0,0,2.86.43,4.65,4.65,0,0,0,3.12-.68l.23-.18-.41-.1a19.55,19.55,0,0,0,2.86,5.17,8.85,8.85,0,0,0,3.91,2.83,6.46,6.46,0,0,0,3.23.32,4.16,4.16,0,0,0,.85-.24c.19-.08.28-.13.27-.14s-.41.1-1.15.18a6.58,6.58,0,0,1-3.08-.46,8.61,8.61,0,0,1-3.66-2.79,19.76,19.76,0,0,1-2.75-5.06l-.13-.32-.28.22-.19.16a4.27,4.27,0,0,1-2.78.59c-1-.07-1.92-.24-2.81-.39a8.57,8.57,0,0,1-4.33-1.79,4.55,4.55,0,0,1-1.52-2.71A10,10,0,0,1,215.65,204.14Z" style="fill:#455a64"></path><path d="M230.36,142.2s.25.16.63.53a3.91,3.91,0,0,1,1,2,5.38,5.38,0,0,1-.52,3.47,15.81,15.81,0,0,1-2.89,3.71l-.19.2.25.14a9.73,9.73,0,0,1,4.21,4.52,7.54,7.54,0,0,1-.2,6.79,7,7,0,0,1-5,3.68l-.72.11.64.36a8.78,8.78,0,0,1,4.17,5.7,8.44,8.44,0,0,1-.73,5.63,9.19,9.19,0,0,1-2.39,3c-.7.57-1.14.8-1.12.83s.12,0,.33-.14a6.11,6.11,0,0,0,.9-.56,8.8,8.8,0,0,0,2.56-3,8.69,8.69,0,0,0,.87-5.87,9.21,9.21,0,0,0-4.35-6.05l-.09.47a7.45,7.45,0,0,0,5.38-3.93,7.59,7.59,0,0,0,1-3.69,8.6,8.6,0,0,0-.77-3.55,10.06,10.06,0,0,0-4.46-4.7l.06.33a15.46,15.46,0,0,0,2.88-3.85,5.51,5.51,0,0,0,.45-3.67,3.87,3.87,0,0,0-1.18-2.06,3.1,3.1,0,0,0-.52-.36Z" style="fill:#455a64"></path><path d="M185.45,159s0,.11.15.29a9.14,9.14,0,0,0,.55.76,12.13,12.13,0,0,0,2.58,2.4,13.6,13.6,0,0,0,5,2.13,13,13,0,0,0,6.87-.38l-.32-.22a10.88,10.88,0,0,0,4,8.41,8.25,8.25,0,0,0,9.63.35l-.37-.24a6.87,6.87,0,0,0,.32,3.54,9.21,9.21,0,0,0,1.63,2.77,12.62,12.62,0,0,0,4.23,3.08,24.77,24.77,0,0,0,3.17,1.21,7.42,7.42,0,0,0,1.18.31,7.42,7.42,0,0,0-1.13-.46,29.69,29.69,0,0,1-3.09-1.32,12.7,12.7,0,0,1-4.05-3.07,7.42,7.42,0,0,1-1.8-6l.12-.6-.49.36a7.78,7.78,0,0,1-9-.37,10.48,10.48,0,0,1-3.85-8v-.33l-.31.11a12.71,12.71,0,0,1-6.63.43,13.38,13.38,0,0,1-4.88-2A15.35,15.35,0,0,1,185.45,159Z" style="fill:#455a64"></path><path d="M188.43,189.55a.63.63,0,0,0,0,.37,1.75,1.75,0,0,0,.62.86,8,8,0,0,0,3.58,1.35,9.28,9.28,0,0,0,5.58-1,9.48,9.48,0,0,0,4.49-5.24l0,0-.46,0a11.11,11.11,0,0,0,5.45,4.25,12.42,12.42,0,0,0,5.61.66,13.43,13.43,0,0,0,3.69-.92,5,5,0,0,0,1.25-.63,20.63,20.63,0,0,1-5,1.19,12.47,12.47,0,0,1-5.41-.74,10.84,10.84,0,0,1-5.19-4.09l-.28-.43-.18.49,0,.05a9,9,0,0,1-9.53,6,8.26,8.26,0,0,1-3.51-1.15A1.73,1.73,0,0,1,188.43,189.55Z" style="fill:#455a64"></path><path d="M262.35,161.43a14.42,14.42,0,0,1-2,4.93,11.71,11.71,0,0,1-14.81,4.13l-.29-.14-.07.31a14.92,14.92,0,0,1-2.22,5.08,15.07,15.07,0,0,1-3,3.26,10.12,10.12,0,0,1-1.37,1,1.29,1.29,0,0,1-1.13.15.83.83,0,0,1-.49-.52c0-.17,0-.26,0-.27s-.08.09-.06.28a.94.94,0,0,0,.5.67,1.45,1.45,0,0,0,1.32-.08,10.39,10.39,0,0,0,1.45-.94,14.84,14.84,0,0,0,3.18-3.27,15,15,0,0,0,2.35-5.22l-.35.17a11.87,11.87,0,0,0,4,1.14,11.69,11.69,0,0,0,11.29-5.52,11.59,11.59,0,0,0,1.5-3.68,9.47,9.47,0,0,0,.15-1.07A1,1,0,0,0,262.35,161.43Z" style="fill:#455a64"></path><path d="M191.93,261.8a1.69,1.69,0,0,0-.91.26,4.33,4.33,0,0,0-2,5.65,4.88,4.88,0,0,0,3.77,2.76,5.17,5.17,0,0,0,4.36-1.72,5.09,5.09,0,0,0,1.27-3.63,5.55,5.55,0,0,0-.72-2.49,2.44,2.44,0,0,0-.59-.74,6.73,6.73,0,0,0,.4.84,5.65,5.65,0,0,1,.53,2.4,4.84,4.84,0,0,1-1.25,3.29,4.76,4.76,0,0,1-3.93,1.52,4.48,4.48,0,0,1-3.4-2.44,3.92,3.92,0,0,1,0-3.45,4.3,4.3,0,0,1,1.61-1.81C191.61,261.93,191.94,261.84,191.93,261.8Z" style="fill:#263238"></path><path d="M224.46,328.55s-3.65,9.45-5.4,9.49c-11.77.27-33-45.84-33-45.84s-23.84,2.09-43.79,13.18C121.63,316.86,100.09,355,100.09,355S63,421.92,56.32,437.87c-13.23,31.51-14.06,37.42-14.06,37.42l131.41-.37L163.13,450.3a193.09,193.09,0,0,0,22.47-15.83c32.72-27.28,48.71-92.81,48.71-92.81Z" style="fill:#001341"></path><path d="M234.31,341.66c9.52,12.12,2.81,54.79,2.81,54.79l-38.07,15.2-2-26.41Z" style="fill:#001341"></path><path d="M227.17,360s0,0,.08,0l0-.06c-.24-.15-.13,0-.18,0L227,360a5.67,5.67,0,0,0-.44.54c-.35.48-.82,1.21-1.37,2.11-1.11,1.82-2.55,4.37-4.08,7.23-3,5.71-5.25,10.48-4.94,10.64s3-4.34,6-10.06c1.52-2.85,2.84-5.47,3.75-7.39.45-1,.8-1.74,1-2.29a6.83,6.83,0,0,0,.23-.65l0-.1c0-.05.05,0-.11-.08s0,0,0,0S227.15,360,227.17,360Z" style="fill:#263238"></path><g style="opacity:0.30000000000000004"><path d="M134.34,363.46s39.55,56.51,48.44,60.15,9,5.05,9,5.05c4.22-3.75,7-8,10.17-12.47l-29.18-39.54Z"></path></g><path d="M150.56,447.73a1.4,1.4,0,0,1-.47,0l-1.34-.18c-1.16-.15-2.84-.44-4.9-.83a145,145,0,0,1-31.23-9.83c-1.91-.86-3.45-1.58-4.49-2.12l-1.2-.62a1.71,1.71,0,0,1-.41-.25,1.55,1.55,0,0,1,.45.15l1.24.54c1.07.48,2.63,1.15,4.56,2,3.86,1.63,9.25,3.72,15.35,5.64s11.71,3.29,15.81,4.17c2,.44,3.71.77,4.86,1l1.32.27C150.41,447.67,150.57,447.71,150.56,447.73Z" style="fill:#263238"></path><polygon points="470.82 436.34 461.26 432.93 445.09 432.93 460.43 440.76 483.11 475.29 497.26 475.29 470.82 436.34" style="fill:#263238"></polygon><polygon points="434.5 432.93 424.94 436.34 398.09 475.29 412.87 475.29 435.33 440.76 450.68 432.93 434.5 432.93" style="fill:#263238"></polygon><rect x="440.1" y="433.78" width="15.57" height="41.51" style="fill:#263238"></rect><path d="M276.6,309.57,291,336.44l-2.08,8.76,28.66,8,1.33-5.94,9.51-5.2s2.67,6.24,11,3.27a48.9,48.9,0,0,0,13.66-7.43l-18-28.35-18.64,10.58,1.84,3.36L311,327.72l-1.33-2.27-3.27,2.08-15.14-26Z" style="fill:#263238"></path><path d="M320.84,311.7h6.34a2,2,0,0,1,2,2V316a0,0,0,0,1,0,0H318.86a0,0,0,0,1,0,0v-2.36a2,2,0,0,1,2-2Z" transform="translate(-111.44 196.05) rotate(-28.95)" style="fill:#263238"></path><path d="M276.6,309.57l-3.25-.53s1-3.23,8.59-7.17,10.5-2.88,10.5-2.88l-1.14,2.56Z" style="fill:#263238"></path><path d="M335.1,309.57l-1.94-3.1L450.7,246.84s1.68-5.46,3.57-6.72,56.9-29,56.9-29h10.49l15.75,23.73-1.47,13L475.68,279l-9.45-.21-115.58,62Z" style="fill:#fff"></path><path d="M335.1,309.57s.1.16.27.51l.78,1.53c.69,1.36,1.71,3.37,3,6,2.65,5.3,6.56,13.09,11.58,23.1l-.18-.06,115.53-62.12.05,0h.07l9.45.2-.12,0,60.25-31.08-.14.2c.28-2.48.58-5.15.89-7.83.19-1.73.39-3.46.58-5.19l.05.17q-8-12-15.75-23.72l.21.11H511.17l.11,0-33.13,16.74-15.68,8c-2.55,1.31-5.09,2.6-7.54,3.93a3.54,3.54,0,0,0-1.49,1.3,14,14,0,0,0-1,1.77,28.81,28.81,0,0,0-1.5,3.82l0,.09-.09,0c-62.72,31.78-107.65,54.5-117.62,59.46v-.05l1.5,2.43c.3.49.41.69.41.69l-.44-.67c-.31-.49-.8-1.25-1.53-2.41l0,0,0,0c9.89-5.11,54.76-27.95,117.44-59.8l-.11.14a29.15,29.15,0,0,1,1.52-3.88,14.12,14.12,0,0,1,1.06-1.84,5.57,5.57,0,0,1,.71-.83,4.32,4.32,0,0,1,.92-.61c2.49-1.35,5-2.63,7.57-4l15.66-8,33.13-16.75.06,0H521.8l.08.11,15.75,23.73,0,.08v.09c-.19,1.72-.39,3.45-.58,5.19-.31,2.68-.61,5.35-.89,7.83v.14l-.13.06L475.8,279.18l-.06,0h-.06l-9.45-.21.12,0L350.71,340.89l-.12.07-.06-.12-11.46-23.15c-1.31-2.65-2.3-4.68-3-6.05l-.75-1.55C335.17,309.75,335.1,309.57,335.1,309.57Z" style="fill:#263238"></path><polygon points="406.27 310.1 410.92 318.07 435.29 304.36 430.86 297.25 406.27 310.1" style="fill:#263238"></polygon><rect x="441.33" y="353.22" width="13.07" height="28.01" style="fill:#ebebeb"></rect><path d="M454.4,381.23a4.46,4.46,0,0,1,0-.57c0-.4,0-.92,0-1.57,0-1.41,0-3.38-.07-5.83,0-5-.07-11.95-.11-20l.24.24-13.06,0,.25-.26h0v7.92c0,2.57,0,5.05,0,7.42,0,4.72,0,9-.05,12.66l-.19-.19,9.51.1,2.62.05.69,0,.25,0s-.28,0-.87,0l-2.58.05-9.62.1h-.19v-.19c0-3.65,0-7.94-.05-12.66,0-2.37,0-4.85,0-7.42,0-1.28,0-2.59,0-3.91v-4h0l.27-.26h13.31v.25c0,8.16-.09,15.17-.12,20.2,0,2.43,0,4.38-.07,5.78,0,.63,0,1.13,0,1.52A3,3,0,0,1,454.4,381.23Z" style="fill:#263238"></path><path d="M449.3,309.83c-2.62-5.51-9.1-8.16-14.45-5.22l-33.47,18.7,6.78,11.6,20.54-11.6h0a6.38,6.38,0,0,1,8.56,2.56l7,12.59-21.18,12.27L430.86,364l34.88-19.61Z" style="fill:#263238"></path><path d="M496.08,344.6H457.75a2.41,2.41,0,0,1-2.4-2.4v-.57a2.41,2.41,0,0,1,2.4-2.4h38.33Z" style="fill:#ebebeb"></path><path d="M496.08,344.6a3.1,3.1,0,0,1,0-.37c0-.27,0-.61,0-1,0-.94,0-2.26-.07-4l.12.12-16.13.1-11.1,0H458a2.29,2.29,0,0,0-1.4.34,2.15,2.15,0,0,0-1,1.73,5.36,5.36,0,0,0,.05,1.08,2.14,2.14,0,0,0,2.22,1.7h2.21l8.42,0,14.28.08,9.68.08,2.66,0,.7,0a.77.77,0,0,1,.25,0s-.29,0-.88,0l-2.59,0-9.64.09-14.36.07-8.5,0h-2.23a2.69,2.69,0,0,1-2.19-1,2.82,2.82,0,0,1-.54-1.13,6.33,6.33,0,0,1-.06-1.21,2.69,2.69,0,0,1,1.23-2.15A2.91,2.91,0,0,1,458,339h10.85l11.1,0,16.13.1h.12v.12c0,1.73-.05,3.07-.07,4,0,.42,0,.75,0,1A1.19,1.19,0,0,1,496.08,344.6Z" style="fill:#263238"></path><path d="M516.72,349.47l-39.24-2.57v-9.27l39.37-2.33c4.33-.09,7.89,3.11,7.89,7.09h0C524.74,346.42,521.1,349.64,516.72,349.47Z" style="fill:#263238"></path><circle cx="452.64" cy="355.27" r="8.78" transform="translate(-118.64 424.13) rotate(-45)" style="fill:#455a64"></circle><path d="M461.43,355.27c-.07,0,0-.78-.38-2.11a8.74,8.74,0,0,0-3.2-4.72,8.6,8.6,0,0,0-3.62-1.58,8.77,8.77,0,0,0-4.5.39,8.36,8.36,0,0,0-2.15,1.17,8,8,0,0,0-1.8,1.82,8.47,8.47,0,0,0,0,10.07,7.78,7.78,0,0,0,1.8,1.82,8.36,8.36,0,0,0,2.15,1.17,8.66,8.66,0,0,0,11.32-5.91c.35-1.33.31-2.12.38-2.12a3.61,3.61,0,0,1,0,.57,6.52,6.52,0,0,1-.2,1.6,8.74,8.74,0,0,1-3.18,5,8.85,8.85,0,0,1-3.77,1.71,9,9,0,0,1-4.73-.36,9,9,0,0,1-4.2-3.13,9,9,0,0,1,0-10.69,8.44,8.44,0,0,1,1.91-1.91,8.58,8.58,0,0,1,2.29-1.22,9,9,0,0,1,4.73-.36,8.86,8.86,0,0,1,6.95,6.67,6.52,6.52,0,0,1,.2,1.6A3.42,3.42,0,0,1,461.43,355.27Z" style="fill:#263238"></path><rect x="437.02" y="384.55" width="21.7" height="46.76" style="fill:#ebebeb"></rect><path d="M458.72,431.31a1.22,1.22,0,0,1,0-.24c0-.18,0-.4,0-.68q0-.94,0-2.61c0-2.3,0-5.59-.07-9.72,0-8.3-.07-19.95-.12-33.51l.25.25H437c.52-.52.15-.14.26-.25h0V397.8c0,4.28,0,8.43,0,12.38,0,7.9,0,15.05-.05,21.13l-.19-.19,15.82.1,4.33,0,1.14,0,.41,0-.37,0-1.1,0-4.3,0-15.93.1h-.19v-.19c0-6.08,0-13.23-.05-21.13,0-3.95,0-8.1,0-12.38V384.57h0c.12-.12-.26.25.26-.27H459v.25c0,13.63-.09,25.34-.11,33.68,0,4.1-.06,7.38-.07,9.66,0,1.09,0,1.95,0,2.56l0,.65A1.48,1.48,0,0,1,458.72,431.31Z" style="fill:#263238"></path><path d="M395.56,377.38l38.21,3a2.41,2.41,0,0,1,2.21,2.58l0,.56a2.41,2.41,0,0,1-2.58,2.21l-38.22-3Z" style="fill:#ebebeb"></path><path d="M395.56,377.38s0,.13,0,.37,0,.61-.05,1c-.06.94-.14,2.26-.24,3.95l-.11-.13,16.09,1.14,11.07.83,6.08.46,3.14.25,1.6.12a2.27,2.27,0,0,0,1.42-.23,2.14,2.14,0,0,0,1.12-1.65,5.72,5.72,0,0,0,0-1.08,2.16,2.16,0,0,0-2.09-1.86l-2.2-.18-8.39-.67-14.24-1.18-9.64-.83-2.65-.24-.69-.07-.25,0a6.46,6.46,0,0,1,.88,0l2.59.16,9.61.66,14.32,1,8.48.63,2.22.17a2.69,2.69,0,0,1,2.11,1.15,2.54,2.54,0,0,1,.45,1.16,5.35,5.35,0,0,1,0,1.21,2.67,2.67,0,0,1-1.38,2.05,2.87,2.87,0,0,1-1.71.29l-1.6-.13-3.14-.24-6.07-.48-11.08-.89-16.07-1.34H395v-.12c.16-1.72.29-3.06.38-4,0-.42.08-.75.11-1A1,1,0,0,1,395.56,377.38Z" style="fill:#263238"></path><path d="M375.36,370.92l38.92,5.59-.71,9.25L374.13,385c-4.32-.24-7.63-3.71-7.32-7.68h0C367.12,373.35,371,370.42,375.36,370.92Z" style="fill:#263238"></path><rect x="434.62" y="416.94" width="26.5" height="15.99" style="fill:#263238"></rect><path d="M466.12,278.85a9.55,9.55,0,0,1-.15-1.45c-.07-.93-.2-2.28-.45-3.92a46,46,0,0,0-3.75-12.42,37.42,37.42,0,0,0-7.35-10.66,39.1,39.1,0,0,0-2.91-2.67,8.52,8.52,0,0,1-1.1-1,6.71,6.71,0,0,1,1.23.8,29.36,29.36,0,0,1,3,2.57,35.24,35.24,0,0,1,7.56,10.69,42.61,42.61,0,0,1,3.64,12.59,35.43,35.43,0,0,1,.29,4A6.68,6.68,0,0,1,466.12,278.85Z" style="fill:#263238"></path><path d="M471.16,231.64l-9,4.61c12.81,8,21.54,22.67,22,37.76l8.73-4.71A46.92,46.92,0,0,0,471.16,231.64Z" style="fill:#001341"></path><path d="M517.14,204.86l-6.31,3.4a1.78,1.78,0,0,0-.16,3,53.21,53.21,0,0,1,21.88,38.13,1.78,1.78,0,0,0,2.62,1.43l6.4-3.45a1.79,1.79,0,0,0,.94-1.66A53,53,0,0,0,519,204.93,1.78,1.78,0,0,0,517.14,204.86Z" style="fill:#263238"></path><path d="M333.16,306.47l-1.12-2.1a3.16,3.16,0,0,1,1.32-4.3l9.62-5a3.15,3.15,0,0,1,4.22,1.26l1.33,2.36Z" style="fill:#263238"></path><rect x="333.53" y="292.25" width="5.63" height="4.88" rx="1.29" transform="translate(-95.05 176.92) rotate(-25.95)" style="fill:#263238"></rect><rect x="345.71" y="298.41" width="12.06" height="38.91" transform="translate(-106.82 197.53) rotate(-27.4)" style="fill:#263238"></rect><path d="M280.7,320.08c.55-.26,12.31-1.81,17.89-4.76s7.09-2,8.2-.34.4,7.85-7.62,11.09c-6.72,2.71-11.59,4.69-11.51,5.14,0,0,3.41,8.28.56,15.3" style="fill:#efbf9d"></path><path d="M288.22,346.51s.23-.32.52-1a14.62,14.62,0,0,0,.79-3.1A24.25,24.25,0,0,0,288.14,331l0,.11c.08.1-.07.35-.06.32l0,0,.17-.11.43-.24,1-.46,2.07-.9,4.46-1.81c1.54-.63,3.13-1.19,4.78-2a14.05,14.05,0,0,0,4.43-3.41c1.63-2,2.81-4.49,2.15-7.16a3.87,3.87,0,0,0-1.15-1.66,3.32,3.32,0,0,0-1.84-.8,7.79,7.79,0,0,0-3.45.63,29.12,29.12,0,0,0-2.86,1.35,24.67,24.67,0,0,1-2.6,1.16c-1.74.65-3.41,1.15-4.95,1.56-6.17,1.61-10.12,2.24-10.06,2.52a19,19,0,0,0,2.78-.29c1.78-.25,4.35-.65,7.49-1.37a45.22,45.22,0,0,0,5.09-1.45,24.53,24.53,0,0,0,2.76-1.15,27.62,27.62,0,0,1,2.76-1.25,6.67,6.67,0,0,1,2.89-.52,2.08,2.08,0,0,1,1.19.52,3,3,0,0,1,.79,1.13c.47,1.88-.47,4.27-1.95,6a12.9,12.9,0,0,1-4,3.12c-1.5.74-3.14,1.35-4.66,2l-4.45,1.87-2.09.95-1,.51-.51.29a3.07,3.07,0,0,0-.27.2l-.15.14a.78.78,0,0,0-.18.55v.07l0,0a25.6,25.6,0,0,1,1.76,10.92C288.71,345,288.07,346.46,288.22,346.51Z" style="fill:#e89a6c"></path><path d="M436.81,296.87a2.37,2.37,0,0,0,1.26-2.18,47.64,47.64,0,0,0-4.8-18.6,44.85,44.85,0,0,0-3.67-6.43,40.83,40.83,0,0,0-8.59-9.11,2.4,2.4,0,0,0-2.56-.26l-32.53,16.54a2.38,2.38,0,0,0-.47,3.92,40.6,40.6,0,0,1,7,7.81,44.79,44.79,0,0,1,3.66,6.43,51.5,51.5,0,0,1,4.67,17.34,2.37,2.37,0,0,0,3.48,1.89Z" style="fill:#263238"></path><path d="M435.29,304.36c.07.13-7.5,4.47-16.9,9.7s-17.07,9.37-17.14,9.25,7.49-4.47,16.89-9.71S435.22,304.23,435.29,304.36Z" style="fill:#455a64"></path><path d="M436.61,297c.07.13-7.24,4.15-16.32,9s-16.49,8.67-16.56,8.54,7.24-4.15,16.32-9S436.55,296.84,436.61,297Z" style="fill:#455a64"></path><path d="M421.85,304.36a13,13,0,0,1-.15-1.67c-.08-1.08-.23-2.63-.51-4.54a52.49,52.49,0,0,0-4.33-14.34,45.43,45.43,0,0,0-4.13-7.14,43,43,0,0,0-4.35-5.16c-1.36-1.36-2.54-2.38-3.37-3.07a13,13,0,0,1-1.28-1.09,1.55,1.55,0,0,1,.38.22c.24.15.59.39,1,.71a35,35,0,0,1,3.5,3,39,39,0,0,1,4.49,5.14,43.91,43.91,0,0,1,4.22,7.2,49.2,49.2,0,0,1,4.21,14.51,44.62,44.62,0,0,1,.35,4.58c0,.54,0,1,0,1.25A1.06,1.06,0,0,1,421.85,304.36Z" style="fill:#455a64"></path><path d="M408.4,276.71a1.51,1.51,0,1,1-1.5-1.51A1.51,1.51,0,0,1,408.4,276.71Z" style="fill:#455a64"></path><path d="M416.46,293.93a1.51,1.51,0,1,1-1.51-1.5A1.51,1.51,0,0,1,416.46,293.93Z" style="fill:#455a64"></path><circle cx="361.19" cy="333.84" r="11.33" transform="translate(-45.01 611.17) rotate(-77.07)" style="fill:#455a64"></circle><path d="M372.51,333.84a21.29,21.29,0,0,0-.45-2.74,11.31,11.31,0,0,0-4.13-6.12,11.14,11.14,0,0,0-10.52-1.55,11.06,11.06,0,0,0-5.14,3.87,11,11,0,0,0,0,13.09,10.44,10.44,0,0,0,2.34,2.35,10.76,10.76,0,0,0,2.8,1.52,11.32,11.32,0,0,0,5.83.5,11.16,11.16,0,0,0,4.69-2.06,11.31,11.31,0,0,0,4.13-6.12,21,21,0,0,0,.45-2.74,8.79,8.79,0,0,1-.25,2.79,11.44,11.44,0,0,1-8.94,8.55,11.58,11.58,0,0,1-6.07-.47,11,11,0,0,1-2.94-1.57,10.75,10.75,0,0,1-2.45-2.45,11.51,11.51,0,0,1,0-13.7,11,11,0,0,1,2.45-2.45,10.83,10.83,0,0,1,2.94-1.56,11.49,11.49,0,0,1,6.07-.48,11.44,11.44,0,0,1,8.94,8.55A8.79,8.79,0,0,1,372.51,333.84Z" style="fill:#263238"></path><rect x="336.79" y="294.69" width="1.45" height="4.81" transform="translate(-95.98 177.67) rotate(-25.95)" style="fill:#263238"></rect><path d="M328.94,343c-.12.07-3-5-6.47-11.32s-6.13-11.49-6-11.56,3,5,6.47,11.31S329.07,343,328.94,343Z" style="fill:#455a64"></path><rect x="429.04" y="379.25" width="37.66" height="9.72" rx="4.35" style="fill:#263238"></rect><path d="M354.59,376.68,249.87,397.06l-38.33-32.61L174.88,399l49.18,37a36.94,36.94,0,0,0,8.12,4.7,38.73,38.73,0,0,0,27.43.34c32.9-11.5,99.52-37.43,99.52-37.43Z" style="fill:#efbf9d"></path><path d="M354.59,376.68s.11.57.31,1.72.5,2.89.9,5.14c.78,4.57,1.94,11.31,3.45,20.06l0,.1-.1,0c-16.93,6.6-42.34,16.48-73.43,28.07-7.78,2.89-15.91,5.88-24.38,8.87A43.32,43.32,0,0,1,248,443.59a37.32,37.32,0,0,1-14-2,33.39,33.39,0,0,1-6.58-3.08,72,72,0,0,1-6-4.25l-11.93-9-24.62-18.5-10.08-7.58-.25-.18.22-.21,36.67-34.59.17-.16.17.15L250,396.89l-.19-.05,76.06-14.68,21.23-4.07,5.58-1.06,1.9-.35s-.67.15-1.94.4L347,378.2l-21.26,4.2-75.87,14.88-.11,0-.08-.07-38.34-32.59h.34l-36.66,34.6,0-.39,10.08,7.58,24.62,18.5,11.92,9a70,70,0,0,0,6,4.22,33.28,33.28,0,0,0,6.48,3.05,36.75,36.75,0,0,0,13.84,1.94,43,43,0,0,0,13.27-2.87c8.47-3,16.61-6,24.38-8.84,31.11-11.54,56.55-21.36,73.5-27.89l-.07.14c-1.44-8.73-2.55-15.45-3.31-20l-.84-5.18C354.67,377.29,354.59,376.68,354.59,376.68Z" style="fill:#e89a6c"></path><path d="M134.16,315.84c-12.51,13.07-15.68,31.91.18,47.62l30.28,32.18,20.81,21c12-5.62,47.15-42.48,47.15-44.27,0,0-45.17-52.1-46.37-53.34" style="fill:#001341"></path><path d="M186.21,319l.23.24.65.73c.59.65,1.43,1.61,2.53,2.84,2.21,2.52,5.42,6.19,9.51,10.84l33.63,38.53.07.09,0,.07a2.65,2.65,0,0,1-.44.86l-.51.69c-.36.45-.72.89-1.09,1.33-.74.88-1.51,1.74-2.28,2.61q-2.34,2.6-4.83,5.22c-3.31,3.5-6.8,7.05-10.43,10.62s-7.43,7.19-11.39,10.76a129.66,129.66,0,0,1-12.66,10.27,29.78,29.78,0,0,1-3.64,2.14l-.16.08-.13-.13-18.14-18.32c-3-2.92-5.7-5.95-8.45-8.85l-8-8.53-14.8-15.77a70.38,70.38,0,0,1-6.43-7.41,22,22,0,0,1-1.27-2,20.86,20.86,0,0,1-1.16-2,32.65,32.65,0,0,1-1.77-4.06c-.23-.68-.5-1.35-.68-2s-.32-1.36-.47-2c-.08-.33-.17-.66-.22-1l-.12-1c-.08-.67-.16-1.32-.23-2s0-1.29,0-1.92a16.38,16.38,0,0,1,.05-1.86q.09-.92.18-1.8c0-.29,0-.58.1-.87s.11-.57.17-.85a35,35,0,0,1,4.12-10.91,44.36,44.36,0,0,1,4.33-6l1.3-1.42c.29-.32.45-.47.45-.47l-.42.51-1.25,1.44a46.89,46.89,0,0,0-4.24,6,35.41,35.41,0,0,0-4,10.86c0,.28-.11.56-.16.84s-.06.58-.1.87c0,.58-.11,1.18-.17,1.78a16.07,16.07,0,0,0,0,1.84c0,.63,0,1.26,0,1.9l.24,1.94.12,1c.06.33.15.66.22,1l.48,2c.18.67.46,1.32.68,2a32.68,32.68,0,0,0,1.77,4,21.62,21.62,0,0,0,1.15,1.95c.42.64.77,1.33,1.26,1.94a71.45,71.45,0,0,0,6.41,7.34L151,380.79l8,8.53c2.76,2.9,5.5,5.92,8.46,8.84l18.15,18.31-.3-.06a29.62,29.62,0,0,0,3.57-2.1,129.06,129.06,0,0,0,12.6-10.22c4-3.57,7.75-7.17,11.38-10.74s7.12-7.1,10.44-10.59c1.65-1.75,3.27-3.48,4.82-5.21.78-.86,1.55-1.72,2.28-2.59l1.08-1.31.5-.67.22-.34a.44.44,0,0,0,.08-.15l0-.06v0h.11l0,.15-33.48-38.65L189.51,323,187,320.06l-.63-.75A2.53,2.53,0,0,1,186.21,319Z" style="fill:#263238"></path><path d="M338.56,406.26l43.94,8.58s6.09-2.74,6.53-5.2-1.72-3.85-5.16-2.87-10.59-2.7-10.59-2.7-.43-1.35,2.82-.66,21.74,4.19,23.4,2.81,4-3.28,2.48-5.57c0,0,6.83,1.44,8.3.09s3.16-5,.49-5.83-10.24-3.81-10.24-3.81,4.38-.68,4.57-2.35.64-3.62-1.1-4.69-21.82-8.86-21.82-8.86,6.67-1.82,8.85-3.62c1.13-.93,1.54-3.86,1.54-3.86s-11.82,2.76-19.41,2.59c0,0-12.67-.49-17.26.82s-19.28,9.73-19.28,9.73" style="fill:#efbf9d"></path><path d="M373.76,394.31c-.05.15,1.43.82,3.95,1.52s6,1.44,9.92,2.15l9.95,1.74c2.55.44,4.11.76,4.17.58.12-.39-6.1-2.25-13.9-3.56L377.91,395C375.38,394.49,373.82,394.14,373.76,394.31Z" style="fill:#e89a6c"></path><path d="M378.24,385.07c0,.29,5.18,1.58,11.52,3.75a71.86,71.86,0,0,0,8.32,2.27c2.18.41,3.56.46,3.58.3s-5.17-1.59-11.52-3.76a73,73,0,0,0-8.31-2.26C379.65,385,378.27,384.91,378.24,385.07Z" style="fill:#e89a6c"></path></g></svg>
