<svg id="wave" style="transform:rotate(0deg); transition: 0.3s" viewBox="0 0 1440 490" version="1.1" xmlns="http://www.w3.org/2000/svg"><defs><linearGradient id="sw-gradient-0" x1="0" x2="0" y1="1" y2="0"><stop stop-color="rgba(0, 19, 65, 1)" offset="0%"></stop><stop stop-color="rgba(182, 220, 246, 1)" offset="100%"></stop></linearGradient></defs><path style="transform:translate(0, 0px); opacity:1" fill="url(#sw-gradient-0)" d="M0,196L60,212.3C120,229,240,261,360,245C480,229,600,163,720,130.7C840,98,960,98,1080,106.2C1200,114,1320,131,1440,155.2C1560,180,1680,212,1800,220.5C1920,229,2040,212,2160,171.5C2280,131,2400,65,2520,57.2C2640,49,2760,98,2880,114.3C3000,131,3120,114,3240,106.2C3360,98,3480,98,3600,114.3C3720,131,3840,163,3960,212.3C4080,261,4200,327,4320,302.2C4440,278,4560,163,4680,130.7C4800,98,4920,147,5040,155.2C5160,163,5280,131,5400,163.3C5520,196,5640,294,5760,302.2C5880,310,6000,229,6120,204.2C6240,180,6360,212,6480,220.5C6600,229,6720,212,6840,171.5C6960,131,7080,65,7200,57.2C7320,49,7440,98,7560,155.2C7680,212,7800,278,7920,318.5C8040,359,8160,376,8280,383.8C8400,392,8520,392,8580,392L8640,392L8640,490L8580,490C8520,490,8400,490,8280,490C8160,490,8040,490,7920,490C7800,490,7680,490,7560,490C7440,490,7320,490,7200,490C7080,490,6960,490,6840,490C6720,490,6600,490,6480,490C6360,490,6240,490,6120,490C6000,490,5880,490,5760,490C5640,490,5520,490,5400,490C5280,490,5160,490,5040,490C4920,490,4800,490,4680,490C4560,490,4440,490,4320,490C4200,490,4080,490,3960,490C3840,490,3720,490,3600,490C3480,490,3360,490,3240,490C3120,490,3000,490,2880,490C2760,490,2640,490,2520,490C2400,490,2280,490,2160,490C2040,490,1920,490,1800,490C1680,490,1560,490,1440,490C1320,490,1200,490,1080,490C960,490,840,490,720,490C600,490,480,490,360,490C240,490,120,490,60,490L0,490Z"></path><defs><linearGradient id="sw-gradient-1" x1="0" x2="0" y1="1" y2="0"><stop stop-color="rgba(228, 242, 252, 1)" offset="0%"></stop><stop stop-color="rgba(18, 98, 155, 1)" offset="100%"></stop></linearGradient></defs><path style="transform:translate(0, 50px); opacity:0.9" fill="url(#sw-gradient-1)" d="M0,196L60,228.7C120,261,240,327,360,302.2C480,278,600,163,720,138.8C840,114,960,180,1080,245C1200,310,1320,376,1440,359.3C1560,343,1680,245,1800,171.5C1920,98,2040,49,2160,49C2280,49,2400,98,2520,106.2C2640,114,2760,82,2880,81.7C3000,82,3120,114,3240,122.5C3360,131,3480,114,3600,155.2C3720,196,3840,294,3960,326.7C4080,359,4200,327,4320,269.5C4440,212,4560,131,4680,98C4800,65,4920,82,5040,98C5160,114,5280,131,5400,171.5C5520,212,5640,278,5760,310.3C5880,343,6000,343,6120,343C6240,343,6360,343,6480,310.3C6600,278,6720,212,6840,228.7C6960,245,7080,343,7200,375.7C7320,408,7440,376,7560,359.3C7680,343,7800,343,7920,294C8040,245,8160,147,8280,98C8400,49,8520,49,8580,49L8640,49L8640,490L8580,490C8520,490,8400,490,8280,490C8160,490,8040,490,7920,490C7800,490,7680,490,7560,490C7440,490,7320,490,7200,490C7080,490,6960,490,6840,490C6720,490,6600,490,6480,490C6360,490,6240,490,6120,490C6000,490,5880,490,5760,490C5640,490,5520,490,5400,490C5280,490,5160,490,5040,490C4920,490,4800,490,4680,490C4560,490,4440,490,4320,490C4200,490,4080,490,3960,490C3840,490,3720,490,3600,490C3480,490,3360,490,3240,490C3120,490,3000,490,2880,490C2760,490,2640,490,2520,490C2400,490,2280,490,2160,490C2040,490,1920,490,1800,490C1680,490,1560,490,1440,490C1320,490,1200,490,1080,490C960,490,840,490,720,490C600,490,480,490,360,490C240,490,120,490,60,490L0,490Z"></path></svg>